SplineFontDB: 3.0
FontName: Shabnam-Bold
FullName: Shabnam Bold
FamilyName: Shabnam
Weight: Bold
Copyright: Copyright (c) 2003 by Bitstream, Inc. All Rights Reserved.\nDejaVu changes are in public domain\nChanges by Saber Rastikerdar are in public domain.\nNon-Arabic(Latin) glyphs and data in extended version are imported from Roboto font under the Apache License, Version 2.0.
Version: 5.0.1
ItalicAngle: 0
UnderlinePosition: -500
UnderlineWidth: 100
Ascent: 1638
Descent: 410
InvalidEm: 0
LayerCount: 2
Layer: 0 0 "Back" 1
Layer: 1 0 "Fore" 0
PreferredKerning: 4
XUID: [1021 502 1027637223 7652970]
UniqueID: 4074848
UseUniqueID: 1
FSType: 0
OS2Version: 1
OS2_WeightWidthSlopeOnly: 0
OS2_UseTypoMetrics: 1
CreationTime: 1431850356
ModificationTime: 1573911206
PfmFamily: 33
TTFWeight: 700
TTFWidth: 5
LineGap: 0
VLineGap: 0
Panose: 2 11 6 3 3 8 4 2 2 4
OS2TypoAscent: 1900
OS2TypoAOffset: 0
OS2TypoDescent: -900
OS2TypoDOffset: 0
OS2TypoLinegap: 0
OS2WinAscent: 1900
OS2WinAOffset: 0
OS2WinDescent: 900
OS2WinDOffset: 0
HheadAscent: 1900
HheadAOffset: 0
HheadDescent: -900
HheadDOffset: 0
OS2SubXSize: 1331
OS2SubYSize: 1433
OS2SubXOff: 0
OS2SubYOff: 286
OS2SupXSize: 1331
OS2SupYSize: 1433
OS2SupXOff: 0
OS2SupYOff: 983
OS2StrikeYSize: 102
OS2StrikeYPos: 530
OS2CapHeight: 1638
OS2XHeight: 1082
OS2Vendor: '    '
OS2CodePages: 00000041.20080000
OS2UnicodeRanges: 80002003.80000000.00000008.00000000
Lookup: 1 9 0 "Single Substitution 1" { "Single Substitution 1 subtable"  } []
Lookup: 1 9 0 "'fina' Terminal Forms in Arabic lookup 9" { "'fina' Terminal Forms in Arabic lookup 9 subtable"  } ['fina' ('DFLT' <'dflt' > 'arab' <'FAR ' 'KUR ' 'URD ' 'dflt' > ) ]
Lookup: 1 9 0 "'medi' Medial Forms in Arabic lookup 11" { "'medi' Medial Forms in Arabic lookup 11 subtable"  } ['medi' ('DFLT' <'dflt' > 'arab' <'FAR ' 'KUR ' 'URD ' 'dflt' > ) ]

StartChar: exclam
Encoding: 33 33 1
GlifName: exclam
Width: 632
VWidth: 2762
GlyphClass: 2
Flags: HW
LayerCount: 2
Fore
SplineSet
143 174 m 0
 143 268.897460938 220.413085938 348 316 348 c 0
 411.584960938 348 489 268.893554688 489 174 c 0
 489 78.8173828125 411.184570312 1 316 1 c 0
 220.569335938 1 143 75.9228515625 143 174 c 0
179.879882812 1326 m 5
 456.077148438 1326 l 5
 438.951171875 475 l 1
 198.08984375 475 l 1
 179.879882812 1326 l 5
EndSplineSet
EndChar

StartChar: period
Encoding: 46 46 2
GlifName: period
Width: 632
VWidth: 2762
GlyphClass: 2
Flags: HW
LayerCount: 2
Fore
SplineSet
143 174 m 0
 143 268.897460938 220.413085938 348 316 348 c 0
 411.584960938 348 489 268.893554688 489 174 c 0
 489 78.8173828125 411.184570312 1 316 1 c 0
 220.569335938 1 143 75.9228515625 143 174 c 0
EndSplineSet
EndChar

StartChar: colon
Encoding: 58 58 3
GlifName: colon
Width: 632
VWidth: 2762
GlyphClass: 2
Flags: HW
LayerCount: 2
Fore
SplineSet
143 794 m 0
 143 888.897460938 220.413085938 968 316 968 c 0
 411.584960938 968 489 888.893554688 489 794 c 0
 489 698.817382812 411.184570312 621 316 621 c 0
 220.569335938 621 143 695.922851562 143 794 c 0
143 174 m 0
 143 268.897460938 220.413085938 348 316 348 c 0
 411.584960938 348 489 268.893554688 489 174 c 0
 489 78.8173828125 411.184570312 1 316 1 c 0
 220.569335938 1 143 75.9228515625 143 174 c 0
EndSplineSet
EndChar

StartChar: uni060C
Encoding: 1548 1548 5
GlifName: afii57388
Width: 669
VWidth: 2770
GlyphClass: 2
Flags: HW
LayerCount: 2
Fore
SplineSet
529.991210938 591.478515625 m 2
 443.06640625 512.005859375 393.975585938 449.438476562 383.189453125 362.194335938 c 1
 478.735351562 348.37890625 516 277.266601562 516 191 c 0
 516 86.7138671875 451.302734375 9 341 9 c 0
 204.7109375 9 143 103.30859375 143 223 c 0
 143 431.127929688 252.057617188 593.6328125 404.517578125 711.6328125 c 2
 429.3671875 730.865234375 l 1
 453.936523438 711.276367188 l 1
 527.936523438 652.276367188 l 1
 564.5546875 623.080078125 l 1
 529.991210938 591.478515625 l 2
EndSplineSet
EndChar

StartChar: uni0615
Encoding: 1557 1557 6
GlifName: uni0615
Width: -29
VWidth: 2712
GlyphClass: 4
Flags: HW
AnchorPoint: "Anchor-10" 658 1622 mark 0
AnchorPoint: "Anchor-9" 658 1622 mark 0
AnchorPoint: "Anchor-1" 672 2446 basemark 0
AnchorPoint: "Anchor-1" 658 1622 mark 0
LayerCount: 2
Fore
SplineSet
915 1918 m 4
 915 1969 889 1995 837 1995 c 4
 764 1995 661 1922 536 1786 c 5
 678 1786 l 6
 788 1786 915 1821 915 1918 c 4
537 1887 m 5
 646 2011 748 2076 841 2076 c 4
 940 2076 989 2027 989 1927 c 4
 989 1786 883 1714 668 1714 c 6
 357 1714 l 5
 357 1786 l 5
 465 1786 l 5
 465 2318 l 5
 538 2317 l 5
 537 1887 l 5
EndSplineSet
EndChar

StartChar: uni061B
Encoding: 1563 1563 7
GlifName: uni061B_
Width: 669
VWidth: 2770
GlyphClass: 2
Flags: HW
LayerCount: 2
Fore
SplineSet
171 174 m 0
 171 268.897460938 248.413085938 348 344 348 c 0
 439.584960938 348 517 268.893554688 517 174 c 0
 517 78.8173828125 439.184570312 1 344 1 c 0
 248.569335938 1 171 75.9228515625 171 174 c 0
529.921875 1054.41601562 m 6
 442.788085938 975.125 393.954101562 912.887695312 383.166992188 825.166015625 c 5
 478.72265625 811.162109375 516 739.951171875 516 654 c 4
 516 549.713867188 451.302734375 472 341 472 c 4
 204.7109375 472 143 566.30859375 143 686 c 4
 143 894.127929688 252.057617188 1056.6328125 404.517578125 1174.6328125 c 6
 429.3671875 1193.86523438 l 5
 453.936523438 1174.27636719 l 5
 527.936523438 1115.27636719 l 5
 564.641601562 1086.01074219 l 5
 529.921875 1054.41601562 l 6
EndSplineSet
EndChar

StartChar: uni061F
Encoding: 1567 1567 8
GlifName: uni061F_
Width: 924
VWidth: 2762
GlyphClass: 2
Flags: HW
LayerCount: 2
Fore
SplineSet
352 174 m 0
 352 268.897460938 429.413085938 348 525 348 c 0
 620.584960938 348 698 268.893554688 698 174 c 0
 698 78.8173828125 620.184570312 1 525 1 c 0
 429.569335938 1 352 75.9228515625 352 174 c 0
59 941 m 4
 59 1178.86914062 265.135742188 1336 469 1336 c 4
 742.455078125 1336 864.946289062 1177.20019531 866 901.15234375 c 6
 866.153320312 891 l 5
 826 891 l 5
 670 891 l 5
 630.291015625 891 l 5
 630.000976562 900.708007812 l 6
 629.088867188 1025.734375 593.6015625 1076 480 1076 c 4
 376.495117188 1076 320 1026.25976562 320 932 c 4
 320 795.518554688 656.311786986 820.079489995 658 502.16015625 c 2
 658.16015625 472 l 1
 618 472 l 1
 433 472 l 1
 393.1953125 472 l 1
 393 501.8046875 l 2
 391.353010689 753.135256357 59 609.580078125 59 941 c 4
EndSplineSet
EndChar

StartChar: uni0621
Encoding: 1569 1569 9
GlifName: uni0621
Width: 807
VWidth: 2551
GlyphClass: 2
Flags: HW
AnchorPoint: "Anchor-7" 437 -54 basechar 0
AnchorPoint: "Anchor-10" 394 1110 basechar 0
LayerCount: 2
Fore
SplineSet
445 851 m 0
 513.65625 851 580.729492188 835.708984375 631.666015625 812.362304688 c 2
 655 801.66796875 l 1
 655 776 l 1
 655 629 l 1
 655 573.151367188 l 1
 602.124023438 591.12890625 l 2
 557.166992188 606.4140625 500.41015625 615 454 615 c 0
 355.9453125 615 315 574.255859375 315 514 c 0
 315 429.79296875 406.643554688 398 498 398 c 0
 538.232421875 398 588.282226562 411.416015625 648.66796875 442.551757812 c 2
 691.526367188 464.650390625 l 1
 705.327148438 418.448242188 l 1
 751.327148438 264.448242188 l 1
 761.954101562 228.869140625 l 1
 727.262695312 215.62890625 l 1
 182.262695312 7.62890625 l 1
 146.243164062 -6.1171875 l 1
 131.1796875 29.37109375 l 1
 72.1796875 168.37109375 l 1
 55.912109375 206.6953125 l 1
 94.857421875 221.416015625 l 1
 210.853515625 265.26171875 l 1
 123.484375 317.2421875 74 402.958007812 74 524 c 0
 74 715.612304688 226.079101562 851 445 851 c 0
EndSplineSet
EndChar

StartChar: uni0627
Encoding: 1575 1575 15
GlifName: uni0627
Width: 459
VWidth: 2551
GlyphClass: 2
Flags: HW
AnchorPoint: "Anchor-10" 225 1463 basechar 0
AnchorPoint: "Anchor-7" 228 -171 basechar 0
LayerCount: 2
Fore
SplineSet
150 1334 m 1
 316 1334 l 1
 356 1334 l 1
 356 1294 l 1
 356 41 l 1
 356 1 l 1
 316 1 l 1
 150 1 l 1
 110 1 l 1
 110 41 l 1
 110 1294 l 1
 110 1334 l 1
 150 1334 l 1
EndSplineSet
Substitution2: "'fina' Terminal Forms in Arabic lookup 9 subtable" uniFE8E
EndChar

StartChar: uni062D
Encoding: 1581 1581 21
GlifName: uni062D_
Width: 1314
VWidth: 2551
GlyphClass: 2
Flags: HW
AnchorPoint: "Anchor-10" 657.5 1112.5 basechar 0
AnchorPoint: "Anchor-7" 743.334 -835.653 basechar 0
LayerCount: 2
Fore
SplineSet
810.49609375 520.720703125 m 1
 775.729492188 539.948242188 l 2
 693.443359375 584.91796875 622.048828125 607 554 607 c 0
 476.930664062 607 424.690429688 582.174804688 348.869140625 522.669921875 c 2
 278.041015625 465.80859375 l 1
 248.419921875 442.02734375 l 1
 223.141601562 470.3828125 l 1
 108.141601562 599.3828125 l 1
 80.927734375 629.909179688 l 1
 112.05078125 656.440429688 l 1
 173.146484375 708.522460938 l 2
 296.608398438 812.436523438 409.833984375 870 548 870 c 0
 650.10546875 870 752.262695312 839.375976562 853.983398438 780.650390625 c 2
 1042.94238281 671.674804688 l 2
 1106.71191406 635.100585938 1173.55859375 612.228515625 1221.27832031 602.133789062 c 2
 1253 595.423828125 l 1
 1253 563 l 1
 1253 381 l 1
 1253 345.979492188 l 1
 1218.28613281 341.350585938 l 2
 827.161132812 289.201171875 312 174.422851562 312 -152 c 0
 312 -343.533203125 451.447265625 -439 802 -439 c 2
 1194 -439 l 5
 1234 -439 l 5
 1234 -479 l 5
 1234 -655 l 5
 1234 -695 l 5
 1194 -695 l 5
 790 -695 l 2
 369.696289062 -695 60 -531.930664062 60 -155 c 0
 60 196.899414062 328.053710938 418.189453125 810.49609375 520.720703125 c 1
EndSplineSet
Substitution2: "'fina' Terminal Forms in Arabic lookup 9 subtable" uniFEA2
Substitution2: "'medi' Medial Forms in Arabic lookup 11 subtable" uniFEA4
Substitution2: "'init' Initial Forms in Arabic lookup 13 subtable" uniFEA3
EndChar

StartChar: uni062F
Encoding: 1583 1583 23
GlifName: uni062F_
Width: 1004
VWidth: 2551
GlyphClass: 2
Flags: HW
AnchorPoint: "Anchor-10" 448 1246 basechar 0
AnchorPoint: "Anchor-7" 424 -185 basechar 0
LayerCount: 2
Fore
SplineSet
464 -0 m 2
 100 -0 l 1
 60 -0 l 1
 60 40 l 1
 60 220 l 1
 60 260 l 1
 100 260 l 1
 465 260 l 2
 656.364257812 260 689 306.91015625 689 340 c 0
 689 373.286132812 660.8359375 432.024414062 601.809570312 499.759765625 c 2
 321.775390625 822.798828125 l 1
 298.765625 849.342773438 l 1
 322.116210938 875.587890625 l 1
 443.116210938 1011.58789062 l 1
 473.576171875 1045.82519531 l 1
 503.3828125 1011.01757812 l 1
 801.408203125 662.987304688 l 2
 892.619140625 556.05078125 944 441.0078125 944 334 c 0
 944 137.783203125 773.708984375 -0 464 -0 c 2
EndSplineSet
Substitution2: "'fina' Terminal Forms in Arabic lookup 9 subtable" uniFEAA
EndChar

StartChar: uni0631
Encoding: 1585 1585 25
GlifName: uni0631
Width: 756
VWidth: 2551
GlyphClass: 2
Flags: HW
AnchorPoint: "Anchor-7" 297 -579 basechar 0
AnchorPoint: "Anchor-10" 511 993 basechar 0
LayerCount: 2
Fore
SplineSet
84 -214 m 2
 326.401367188 -214 442 -104.009765625 442 111 c 2
 442 645 l 1
 442 684.770507812 l 1
 481.770507812 684.999023438 l 1
 655.770507812 685.999023438 l 1
 696 686.23046875 l 1
 696 646 l 1
 696 111 l 2
 696 -249.955078125 476.95703125 -464.856445312 86.4384765625 -467.998046875 c 2
 14.5556640625 -468.99609375 l 1
 -26 -469.559570312 l 1
 -26 -429 l 1
 -26 -254 l 1
 -26 -214 l 1
 14 -214 l 1
 84 -214 l 2
EndSplineSet
PairPos2: "'kern' Horizontal Kerning lookup 15-1" uniFEE7 dx=-178 dy=0 dh=-178 dv=0 dx=0 dy=0 dh=0 dv=0
PairPos2: "'kern' Horizontal Kerning lookup 15-2" uni0698 dx=-40 dy=0 dh=-40 dv=0 dx=0 dy=0 dh=0 dv=0
PairPos2: "'kern' Horizontal Kerning lookup 15-2" uni0648 dx=-30 dy=0 dh=-30 dv=0 dx=0 dy=0 dh=0 dv=0
PairPos2: "'kern' Horizontal Kerning lookup 15-2" uni0624 dx=-30 dy=0 dh=-30 dv=0 dx=0 dy=0 dh=0 dv=0
PairPos2: "'kern' Horizontal Kerning lookup 15-2" uni0632 dx=-30 dy=0 dh=-30 dv=0 dx=0 dy=0 dh=0 dv=0
PairPos2: "'kern' Horizontal Kerning lookup 15-2" uni0631 dx=-30 dy=0 dh=-30 dv=0 dx=0 dy=0 dh=0 dv=0
PairPos2: "'kern' Horizontal Kerning lookup 15-2" uniFB90 dx=-180 dy=0 dh=-180 dv=0 dx=0 dy=0 dh=0 dv=0
PairPos2: "'kern' Horizontal Kerning lookup 15-2" uniFB8E dx=-180 dy=0 dh=-180 dv=0 dx=0 dy=0 dh=0 dv=0
PairPos2: "'kern' Horizontal Kerning lookup 15-2" uni06A9 dx=-180 dy=0 dh=-180 dv=0 dx=0 dy=0 dh=0 dv=0
PairPos2: "'kern' Horizontal Kerning lookup 15-2" uniFEEB dx=-178 dy=0 dh=-178 dv=0 dx=0 dy=0 dh=0 dv=0
PairPos2: "'kern' Horizontal Kerning lookup 15-2" uni0647 dx=-178 dy=0 dh=-178 dv=0 dx=0 dy=0 dh=0 dv=0
PairPos2: "'kern' Horizontal Kerning lookup 15-2" uniFEE3 dx=-178 dy=0 dh=-178 dv=0 dx=0 dy=0 dh=0 dv=0
PairPos2: "'kern' Horizontal Kerning lookup 15-2" uni0645 dx=-178 dy=0 dh=-178 dv=0 dx=0 dy=0 dh=0 dv=0
PairPos2: "'kern' Horizontal Kerning lookup 15-2" uniFEFB dx=-143 dy=0 dh=-143 dv=0 dx=0 dy=0 dh=0 dv=0
PairPos2: "'kern' Horizontal Kerning lookup 15-2" uniFEDF dx=-143 dy=0 dh=-143 dv=0 dx=0 dy=0 dh=0 dv=0
PairPos2: "'kern' Horizontal Kerning lookup 15-2" uni0644 dx=-60 dy=0 dh=-60 dv=0 dx=0 dy=0 dh=0 dv=0
PairPos2: "'kern' Horizontal Kerning lookup 15-2" uniFEDB dx=-180 dy=0 dh=-180 dv=0 dx=0 dy=0 dh=0 dv=0
PairPos2: "'kern' Horizontal Kerning lookup 15-2" uni0643 dx=-143 dy=0 dh=-143 dv=0 dx=0 dy=0 dh=0 dv=0
PairPos2: "'kern' Horizontal Kerning lookup 15-2" uniFED7 dx=-178 dy=0 dh=-178 dv=0 dx=0 dy=0 dh=0 dv=0
PairPos2: "'kern' Horizontal Kerning lookup 15-2" uniFED3 dx=-178 dy=0 dh=-178 dv=0 dx=0 dy=0 dh=0 dv=0
PairPos2: "'kern' Horizontal Kerning lookup 15-2" uni0641 dx=-178 dy=0 dh=-178 dv=0 dx=0 dy=0 dh=0 dv=0
PairPos2: "'kern' Horizontal Kerning lookup 15-2" uniFECF dx=-178 dy=0 dh=-178 dv=0 dx=0 dy=0 dh=0 dv=0
PairPos2: "'kern' Horizontal Kerning lookup 15-2" uniFECB dx=-178 dy=0 dh=-178 dv=0 dx=0 dy=0 dh=0 dv=0
PairPos2: "'kern' Horizontal Kerning lookup 15-2" uniFEC7 dx=-178 dy=0 dh=-178 dv=0 dx=0 dy=0 dh=0 dv=0
PairPos2: "'kern' Horizontal Kerning lookup 15-2" uni0638 dx=-178 dy=0 dh=-178 dv=0 dx=0 dy=0 dh=0 dv=0
PairPos2: "'kern' Horizontal Kerning lookup 15-2" uniFEC3 dx=-178 dy=0 dh=-178 dv=0 dx=0 dy=0 dh=0 dv=0
PairPos2: "'kern' Horizontal Kerning lookup 15-2" uni0637 dx=-178 dy=0 dh=-178 dv=0 dx=0 dy=0 dh=0 dv=0
PairPos2: "'kern' Horizontal Kerning lookup 15-2" uniFEBF dx=-178 dy=0 dh=-178 dv=0 dx=0 dy=0 dh=0 dv=0
PairPos2: "'kern' Horizontal Kerning lookup 15-2" uni0636 dx=-178 dy=0 dh=-178 dv=0 dx=0 dy=0 dh=0 dv=0
PairPos2: "'kern' Horizontal Kerning lookup 15-2" uniFEBB dx=-178 dy=0 dh=-178 dv=0 dx=0 dy=0 dh=0 dv=0
PairPos2: "'kern' Horizontal Kerning lookup 15-2" uni0635 dx=-178 dy=0 dh=-178 dv=0 dx=0 dy=0 dh=0 dv=0
PairPos2: "'kern' Horizontal Kerning lookup 15-2" uniFEB7 dx=-178 dy=0 dh=-178 dv=0 dx=0 dy=0 dh=0 dv=0
PairPos2: "'kern' Horizontal Kerning lookup 15-2" uni0634 dx=-178 dy=0 dh=-178 dv=0 dx=0 dy=0 dh=0 dv=0
PairPos2: "'kern' Horizontal Kerning lookup 15-2" uniFEB3 dx=-178 dy=0 dh=-178 dv=0 dx=0 dy=0 dh=0 dv=0
PairPos2: "'kern' Horizontal Kerning lookup 15-2" uni0633 dx=-178 dy=0 dh=-178 dv=0 dx=0 dy=0 dh=0 dv=0
PairPos2: "'kern' Horizontal Kerning lookup 15-2" uni0630 dx=-178 dy=0 dh=-178 dv=0 dx=0 dy=0 dh=0 dv=0
PairPos2: "'kern' Horizontal Kerning lookup 15-2" uni062F dx=-178 dy=0 dh=-178 dv=0 dx=0 dy=0 dh=0 dv=0
PairPos2: "'kern' Horizontal Kerning lookup 15-2" uniFEA7 dx=-178 dy=0 dh=-178 dv=0 dx=0 dy=0 dh=0 dv=0
PairPos2: "'kern' Horizontal Kerning lookup 15-2" uniFEA3 dx=-178 dy=0 dh=-178 dv=0 dx=0 dy=0 dh=0 dv=0
PairPos2: "'kern' Horizontal Kerning lookup 15-2" uniFE9F dx=-178 dy=0 dh=-178 dv=0 dx=0 dy=0 dh=0 dv=0
PairPos2: "'kern' Horizontal Kerning lookup 15-2" uniFE9B dx=-178 dy=0 dh=-178 dv=0 dx=0 dy=0 dh=0 dv=0
PairPos2: "'kern' Horizontal Kerning lookup 15-2" uni062B dx=-178 dy=0 dh=-178 dv=0 dx=0 dy=0 dh=0 dv=0
PairPos2: "'kern' Horizontal Kerning lookup 15-2" uniFE97 dx=-178 dy=0 dh=-178 dv=0 dx=0 dy=0 dh=0 dv=0
PairPos2: "'kern' Horizontal Kerning lookup 15-2" uni062A dx=-178 dy=0 dh=-178 dv=0 dx=0 dy=0 dh=0 dv=0
PairPos2: "'kern' Horizontal Kerning lookup 15-2" uni0629 dx=-178 dy=0 dh=-178 dv=0 dx=0 dy=0 dh=0 dv=0
PairPos2: "'kern' Horizontal Kerning lookup 15-2" uni0628 dx=-178 dy=0 dh=-178 dv=0 dx=0 dy=0 dh=0 dv=0
PairPos2: "'kern' Horizontal Kerning lookup 15-2" uni0627 dx=-163 dy=0 dh=-163 dv=0 dx=0 dy=0 dh=0 dv=0
PairPos2: "'kern' Horizontal Kerning lookup 15-2" uni0623 dx=-163 dy=0 dh=-163 dv=0 dx=0 dy=0 dh=0 dv=0
PairPos2: "'kern' Horizontal Kerning lookup 15-2" uni0622 dx=-163 dy=0 dh=-163 dv=0 dx=0 dy=0 dh=0 dv=0
PairPos2: "'kern' Horizontal Kerning lookup 15-2" uni0621 dx=-178 dy=0 dh=-178 dv=0 dx=0 dy=0 dh=0 dv=0
PairPos2: "'kern' Horizontal Kerning lookup 15-2" uniFB94 dx=-180 dy=0 dh=-180 dv=0 dx=0 dy=0 dh=0 dv=0
PairPos2: "'kern' Horizontal Kerning lookup 15-2" uniFB92 dx=-180 dy=0 dh=-180 dv=0 dx=0 dy=0 dh=0 dv=0
PairPos2: "'kern' Horizontal Kerning lookup 15-2" uni06AF dx=-180 dy=0 dh=-180 dv=0 dx=0 dy=0 dh=0 dv=0
PairPos2: "'kern' Horizontal Kerning lookup 15-2" uni067E dx=-178 dy=0 dh=-178 dv=0 dx=0 dy=0 dh=0 dv=0
PairPos2: "'kern' Horizontal Kerning lookup 15-2" uni0640 dx=-178 dy=0 dh=-178 dv=0 dx=0 dy=0 dh=0 dv=0
PairPos2: "'kern' Horizontal Kerning lookup 15-2" uniFE8B dx=-178 dy=0 dh=-178 dv=0 dx=0 dy=0 dh=0 dv=0
PairPos2: "'kern' Horizontal Kerning lookup 15-2" uniFB7C dx=-120 dy=0 dh=-120 dv=0 dx=0 dy=0 dh=0 dv=0
PairPos2: "'kern' Horizontal Kerning lookup 15-2" uniFE91 dx=-60 dy=0 dh=-60 dv=0 dx=0 dy=0 dh=0 dv=0
PairPos2: "'kern' Horizontal Kerning lookup 15-5" uni06C0 dx=-178 dy=0 dh=-178 dv=0 dx=0 dy=0 dh=0 dv=0
Substitution2: "'fina' Terminal Forms in Arabic lookup 9 subtable" uniFEAE
EndChar

StartChar: uni0633
Encoding: 1587 1587 27
GlifName: uni0633
Width: 2479
VWidth: 2551
GlyphClass: 2
Flags: HW
AnchorPoint: "Anchor-7" 688 -628 basechar 0
AnchorPoint: "Anchor-10" 1775 1104 basechar 0
LayerCount: 2
Fore
SplineSet
1377 437 m 2
 1377 305.55859375 1424.83203125 259.978515625 1527.19921875 259.978515625 c 0
 1621.43652344 259.978515625 1665 302.58984375 1665 413.076171875 c 2
 1666 674.153320312 l 1
 1666.15332031 714 l 1
 1706 714 l 1
 1876 714 l 1
 1915.84570312 714 l 1
 1916 674.154296875 l 1
 1916.99902344 415.232421875 l 2
 1917.87597656 302.197265625 1959.66894531 260.98828125 2058.27539062 260.98828125 c 0
 2128.8125 260.98828125 2164 294.541015625 2164 411 c 2
 2164 706 l 1
 2164 746 l 1
 2204 746 l 1
 2379 746 l 1
 2419 746 l 1
 2419 706 l 1
 2419 403 l 2
 2419 155.76171875 2288.0859375 0 2064 0 c 0
 1946.98828125 0 1859.25292969 37.48046875 1796.53027344 111.548828125 c 1
 1730.328125 33.3427734375 1635.78027344 0 1520.76171875 0 c 0
 1463.96679688 0.67578125 1410.07324219 12.2080078125 1363.36035156 38.91015625 c 1
 1342.28613281 -287.283203125 1122.01269531 -449 744 -449 c 2
 693 -449 l 2
 282.630859375 -449 60 -248.262695312 60 141 c 2
 60 482 l 1
 60 522 l 1
 100 522 l 1
 274 522 l 1
 314 522 l 1
 314 482 l 1
 314 142 l 2
 314 -83.3662109375 430.090820312 -190 693 -190 c 2
 744 -190 l 2
 1011.62695312 -190 1121 -96.7333984375 1121 87 c 2
 1121 671 l 1
 1121 711 l 1
 1161 711 l 1
 1337 711 l 1
 1377 711 l 1
 1377 671 l 1
 1377 437 l 2
EndSplineSet
Substitution2: "'fina' Terminal Forms in Arabic lookup 9 subtable" uniFEB2
Substitution2: "'medi' Medial Forms in Arabic lookup 11 subtable" uniFEB4
Substitution2: "'init' Initial Forms in Arabic lookup 13 subtable" uniFEB3
EndChar

StartChar: uni0635
Encoding: 1589 1589 29
GlifName: uni0635
Width: 2505
VWidth: 2551
GlyphClass: 2
Flags: HW
AnchorPoint: "Anchor-10" 1977 1188 basechar 0
AnchorPoint: "Anchor-7" 688 -628 basechar 0
LayerCount: 2
Fore
SplineSet
1377 457 m 2
 1377 362.124023438 1400.89257812 313.830078125 1423.65722656 295.087890625 c 1
 1584.47167969 645.337890625 1749.30859375 855 2015 855 c 0
 2257.25585938 855 2445 649.754882812 2445 407 c 0
 2445 136.416015625 2234.88769531 0 1958 0 c 2
 1618 0 l 2
 1509.01757812 0 1424.71582031 13.05078125 1363.65527344 43.82421875 c 1
 1344.87402344 -284.444335938 1124.40039062 -449 744 -449 c 2
 693 -449 l 2
 282.630859375 -449 60 -248.262695312 60 141 c 2
 60 482 l 1
 60 522 l 1
 100 522 l 1
 274 522 l 1
 314 522 l 1
 314 482 l 1
 314 142 l 2
 314 -83.3662109375 430.090820312 -190 693 -190 c 2
 744 -190 l 2
 1011.62695312 -190 1121 -96.7333984375 1121 87 c 2
 1121 671 l 1
 1121 711 l 1
 1161 711 l 1
 1337 711 l 1
 1377 711 l 1
 1377 671 l 1
 1377 457 l 2
2190 387 m 0
 2190 507.6953125 2102.92382812 592 2004 592 c 0
 1907.21191406 592 1795.22753906 494.380859375 1680.04199219 260 c 1
 1978 260 l 2
 2124.796875 260 2190 299.155273438 2190 387 c 0
EndSplineSet
Substitution2: "'fina' Terminal Forms in Arabic lookup 9 subtable" uniFEBA
Substitution2: "'medi' Medial Forms in Arabic lookup 11 subtable" uniFEBC
Substitution2: "'init' Initial Forms in Arabic lookup 13 subtable" uniFEBB
EndChar

StartChar: uni0637
Encoding: 1591 1591 31
GlifName: uni0637
Width: 1358
VWidth: 2551
GlyphClass: 2
Flags: HW
AnchorPoint: "Anchor-7" 606 -198 basechar 0
AnchorPoint: "Anchor-10" 447 1463 basechar 0
LayerCount: 2
Fore
SplineSet
1043 387 m 0
 1043 507.244140625 955.911132812 592 857 592 c 0
 760.211914062 592 648.227539062 494.380859375 533.041992188 260 c 1
 831 260 l 2
 977.80859375 260 1043 299.352539062 1043 387 c 0
329 395.481445312 m 1
 329 1295 l 1
 329 1335 l 1
 369 1335 l 1
 535 1335 l 1
 575 1335 l 1
 575 1295 l 1
 575 735.125976562 l 1
 660.145507812 809.099609375 757.543945312 855 868 855 c 0
 1109.87304688 855 1298 650.26171875 1298 407 c 0
 1298 136.251953125 1088.01953125 0 811 0 c 2
 100 0 l 1
 60 0 l 1
 60 40 l 1
 60 220 l 1
 60 260 l 1
 100 260 l 1
 262.571289062 260 l 1
 284.78515625 310.508789062 307.818359375 353.49609375 329 395.481445312 c 1
EndSplineSet
Substitution2: "'fina' Terminal Forms in Arabic lookup 9 subtable" uniFEC2
Substitution2: "'medi' Medial Forms in Arabic lookup 11 subtable" uniFEC4
Substitution2: "'init' Initial Forms in Arabic lookup 13 subtable" uniFEC3
EndChar

StartChar: uni0639
Encoding: 1593 1593 33
GlifName: uni0639
Width: 1244
VWidth: 2551
GlyphClass: 2
Flags: HW
AnchorPoint: "Anchor-7" 743.334 -835.653 basechar 0
AnchorPoint: "Anchor-10" 739 1263 basechar 0
LayerCount: 2
Fore
SplineSet
60 -157 m 0
 60 83.1259765625 187.559570312 269.71484375 426.547851562 368.7265625 c 1
 359.775390625 444.772460938 326 532.720703125 326 623.172851562 c 0
 328.188476562 875.958007812 508.982421875 1048 761 1048 c 0
 896.73828125 1048 1010.52636719 991.270507812 1098.08300781 883.176757812 c 2
 1114.94238281 862.362304688 l 1
 1102.11621094 838.845703125 l 1
 1030.11621094 706.845703125 l 1
 1005.109375 661.001953125 l 1
 967.360351562 697.084960938 l 2
 905.702148438 756.0234375 839.40625 783 765 783 c 0
 660.161132812 783 581 726.4296875 581 625 c 0
 581 565.918945312 619.665039062 499.784179688 707.477539062 446.793945312 c 1
 779.745117188 452.25390625 855.84375 454 939 454 c 2
 1107 454 l 1
 1147 454 l 1
 1147 414 l 1
 1147 233 l 1
 1147 193 l 1
 1107 193 l 1
 923 193 l 2
 492.65234375 193 312 59.3984375 312 -153 c 0
 312 -344.36328125 452.268554688 -439 802 -439 c 2
 1124 -439 l 5
 1164 -439 l 5
 1164 -479 l 5
 1164 -655 l 5
 1164 -695 l 5
 1124 -695 l 5
 790 -695 l 2
 374.944335938 -695 60 -531.87890625 60 -157 c 0
EndSplineSet
Substitution2: "'fina' Terminal Forms in Arabic lookup 9 subtable" uniFECA
Substitution2: "'medi' Medial Forms in Arabic lookup 11 subtable" uniFECC
Substitution2: "'init' Initial Forms in Arabic lookup 13 subtable" uniFECB
EndChar

StartChar: uni0640
Encoding: 1600 1600 35
GlifName: afii57440
Width: 250
VWidth: 2551
GlyphClass: 2
Flags: HW
AnchorPoint: "Anchor-10" 118 925 basechar 0
AnchorPoint: "Anchor-7" 130 -132 basechar 0
LayerCount: 2
Fore
SplineSet
255 260 m 6
 272.201171875 260 280 178.0859375 280 137 c 6
 280 126 l 6
 280 83.5537109375 272.942382812 -2.19730816798e-15 255 0 c 6
 -5 0 l 2
 -22.943359375 0 -30 83.5703125 -30 126 c 2
 -30 137 l 2
 -30 178.266601562 -22.181640625 260 -5 260 c 2
 255 260 l 6
EndSplineSet
EndChar

StartChar: uni0643
Encoding: 1603 1603 38
GlifName: uni0643
Width: 1889
VWidth: 2551
GlyphClass: 2
Flags: HW
AnchorPoint: "Anchor-7" 850 -193 basechar 0
AnchorPoint: "Anchor-10" 948.836 1315.23 basechar 0
LayerCount: 2
Fore
SplineSet
860.8359375 699.23046875 m 0
 962.624023438 699.23046875 996.8359375 717.129882812 996.8359375 738.23046875 c 0
 996.8359375 738.891601562 996.776367188 739.301757812 996.760742188 739.401367188 c 0
 992.440429688 744.82421875 731.7265625 762.037109375 731.7265625 968.451171875 c 0
 731.7265625 1120.27050781 856.122070312 1208.58300781 1039.765625 1208.58300781 c 0
 1069.671875 1208.58300781 1100.62011719 1206.31152344 1131.58398438 1201.81542969 c 2
 1165.8359375 1196.84179688 l 1
 1165.8359375 1162.23046875 l 1
 1165.8359375 1056.23046875 l 1
 1165.8359375 1011.88671875 l 1
 1121.7265625 1016.44238281 l 2
 1099.24609375 1018.76367188 1075.41503906 1020.28027344 1052.36425781 1020.28027344 c 0
 961.361328125 1020.28027344 924.8359375 998.213867188 924.8359375 969.23046875 c 0
 924.8359375 907.591796875 1186.8359375 980.084960938 1186.8359375 757.23046875 c 0
 1186.8359375 556.956054688 1005.83105469 504 846 504 c 0
 798.7734375 504 744.666992188 510.848632812 697.178710938 517.6328125 c 2
 662.8359375 522.5390625 l 1
 662.8359375 557.23046875 l 1
 662.8359375 671.23046875 l 1
 662.8359375 715.745117188 l 1
 707.096679688 711.002929688 l 2
 758.223632812 705.525390625 811.728515625 699.23046875 860.8359375 699.23046875 c 0
538 260 m 2
 1352 260 l 2
 1480.06835938 260 1539 323 1539 488 c 2
 1539 1293 l 5
 1539 1333 l 5
 1579 1333 l 5
 1746 1333 l 5
 1786 1333 l 5
 1786 1293 l 5
 1786 485 l 2
 1786 173 1635.17578125 0 1347 0 c 2
 535 0 l 2
 227.497070312 0 62 169.775390625 62 482 c 2
 62 693 l 1
 62 733 l 1
 102 733 l 1
 277 733 l 1
 317 733 l 1
 317 693 l 1
 317 483 l 2
 317 326.571289062 383.106445312 260 538 260 c 2
EndSplineSet
Substitution2: "'fina' Terminal Forms in Arabic lookup 9 subtable" uniFEDA
Substitution2: "'medi' Medial Forms in Arabic lookup 11 subtable" uniFEDC
Substitution2: "'init' Initial Forms in Arabic lookup 13 subtable" uniFEDB
EndChar

StartChar: uni0644
Encoding: 1604 1604 39
GlifName: uni0644
Width: 1334
VWidth: 2551
GlyphClass: 2
Flags: HW
AnchorPoint: "Anchor-10" 599 1034.1 basechar 0
AnchorPoint: "Anchor-7" 652 -616 basechar 0
LayerCount: 2
Fore
SplineSet
314 142 m 2
 314 -84.205078125 415.924804688 -186 641 -186 c 2
 694 -186 l 2
 894.297851562 -186 985 -92 985 126 c 2
 985 1293 l 5
 985 1333 l 5
 1025 1333 l 5
 1191 1333 l 5
 1231.03222656 1333 l 5
 1231 1292.96777344 l 5
 1230 121.984375 l 2
 1230 -248 1042.36035156 -447 687 -447 c 2
 641 -447 l 2
 260.821289062 -447 60 -243.408203125 60 141 c 2
 60 482 l 1
 60 522 l 1
 100 522 l 1
 274 522 l 1
 314 522 l 1
 314 482 l 1
 314 142 l 2
EndSplineSet
Substitution2: "'fina' Terminal Forms in Arabic lookup 9 subtable" uniFEDE
Substitution2: "'medi' Medial Forms in Arabic lookup 11 subtable" uniFEE0
Substitution2: "'init' Initial Forms in Arabic lookup 13 subtable" uniFEDF
EndChar

StartChar: uni0645
Encoding: 1605 1605 40
GlifName: uni0645
Width: 1305
VWidth: 2551
GlyphClass: 2
Flags: HW
AnchorPoint: "Anchor-10" 725 1176 basechar 0
AnchorPoint: "Anchor-7" 775 -238 basechar 0
LayerCount: 2
Fore
SplineSet
840 569 m 2
 721 569 l 1
 721 408 l 2
 721 267.284179688 768.397460938 219 866 219 c 0
 948.34375 219 992 263.842773438 992 408 c 2
 992 450 l 2
 992 531.344726562 955.029296875 569 840 569 c 2
310 199 m 2
 310 -456 l 1
 310 -496 l 1
 270 -496 l 1
 100 -496 l 1
 59.9384765625 -496 l 1
 60 -455.938476562 l 1
 61 199.061523438 l 2
 61.61328125 600.631835938 234.1640625 821 580 821 c 2
 855 821 l 2
 1104.98144531 821 1245 691.684570312 1245 451 c 2
 1245 407 l 2
 1245 133.264648438 1114.82324219 -20 866 -20 c 0
 605.901367188 -20 468 131.530273438 468 406 c 2
 468 550.529296875 l 1
 357.665039062 529.939453125 310 410.202148438 310 199 c 2
EndSplineSet
Substitution2: "'init' Initial Forms in Arabic lookup 13 subtable" uniFEE3
Substitution2: "'medi' Medial Forms in Arabic lookup 11 subtable" uniFEE4
Substitution2: "'fina' Terminal Forms in Arabic lookup 9 subtable" uniFEE2
EndChar

StartChar: uni0647
Encoding: 1607 1607 42
GlifName: uni0647
Width: 924
VWidth: 2328
GlyphClass: 2
Flags: HW
AnchorPoint: "Anchor-10" 422 1180 basechar 0
AnchorPoint: "Anchor-7" 463 -162 basechar 0
LayerCount: 2
Fore
SplineSet
310 359 m 0
 310 287.836914062 350.338867188 257 468 257 c 0
 584.189453125 257 619 286.818359375 619 363 c 0
 619 397.68359375 576.432617188 483.595703125 455.709960938 597.412109375 c 1
 341.991210938 461.390625 310 398.858398438 310 359 c 0
467 0 m 0
 236.8125 0 63 114.186523438 63 358 c 0
 63 478.844726562 131.180664062 586.802734375 282.627929688 771.051757812 c 1
 274.12890625 779.30859375 l 1
 247.462890625 805.212890625 l 1
 271.348632812 833.700195312 l 1
 380.348632812 963.700195312 l 1
 406.662109375 995.083984375 l 1
 437.416015625 968.036132812 l 2
 743.551757812 698.796875 867 547.07421875 867 357 c 0
 867 114.581054688 696.513671875 0 467 0 c 0
EndSplineSet
Substitution2: "'fina' Terminal Forms in Arabic lookup 9 subtable" uniFEEA
Substitution2: "'medi' Medial Forms in Arabic lookup 11 subtable" uniFEEC
Substitution2: "'init' Initial Forms in Arabic lookup 13 subtable" uniFEEB
EndChar

StartChar: uni0648
Encoding: 1608 1608 43
GlifName: uni0648
Width: 880
VWidth: 2551
GlyphClass: 2
Flags: HW
AnchorPoint: "Anchor-7" 394 -579 basechar 0
AnchorPoint: "Anchor-10" 444 1094 basechar 0
LayerCount: 2
Fore
SplineSet
820 388 m 2
 820 40 l 2
 820 -271.551757812 594.9140625 -467 202 -467 c 2
 128 -467 l 1
 88 -467 l 1
 88 -427 l 1
 88 -251 l 1
 88 -211 l 1
 128 -211 l 1
 196 -211 l 2
 437.1015625 -211 549.35546875 -130.138671875 567.368164062 0 c 1
 448 0 l 2
 197.983398438 0 59.9931640625 133.400390625 59.9931640625 379.083007812 c 0
 59.9931640625 615.541015625 189.705078125 805 447 805 c 0
 683.391601562 805 820 635.15625 820 388 c 2
307 383 m 0
 307 296.868164062 342.884765625 260 447 260 c 2
 571 260 l 1
 571 389 l 2
 571 511.123046875 520.70703125 553 443 553 c 0
 352.130859375 553 307 500.129882812 307 383 c 0
EndSplineSet
Substitution2: "'fina' Terminal Forms in Arabic lookup 9 subtable" uniFEEE
EndChar

StartChar: uni0649
Encoding: 1609 1609 44
GlifName: uni0649
Width: 1442
VWidth: 2551
GlyphClass: 2
Flags: HW
AnchorPoint: "Anchor-10" 580 1055 basechar 0
AnchorPoint: "Anchor-7" 699 -628 basechar 0
LayerCount: 2
Fore
SplineSet
686 332 m 2
 686 648.44140625 853.505859375 826 1110 826 c 2
 1341 826 l 1
 1380.77246094 826 l 1
 1380.99902344 786.228515625 l 1
 1381.99902344 611.228515625 l 1
 1382.22949219 571 l 1
 1342 571 l 1
 1105 571 l 2
 1000.37207031 571 943.073242188 508.153320312 939 331.580078125 c 1
 939 309 l 1
 1059 309 l 2
 1258.08105469 309 1381 222.490234375 1381 49 c 2
 1381 20 l 2
 1381 -293.467773438 1163.01757812 -447 775 -447 c 2
 691 -447 l 2
 282.40234375 -447 60 -245.084960938 60 145 c 2
 60 555 l 1
 60 595 l 1
 100 595 l 1
 272 595 l 1
 312 595 l 1
 312 555 l 1
 312 145 l 2
 312 -81.349609375 429.116210938 -188 691 -188 c 2
 775 -188 l 2
 1030.82519531 -188 1129 -116.409179688 1129 2 c 2
 1129 14 l 2
 1129 40.0146484375 1123.5546875 55 1059 55 c 2
 901 55 l 2
 770.157226562 55 686 128.76953125 686 260 c 2
 686 332 l 2
EndSplineSet
Substitution2: "'fina' Terminal Forms in Arabic lookup 9 subtable" uniFEF0
Substitution2: "'medi' Medial Forms in Arabic lookup 11 subtable" uniFBE9
Substitution2: "'init' Initial Forms in Arabic lookup 13 subtable" uniFBE8
EndChar

StartChar: uni064B
Encoding: 1611 1611 46
GlifName: uni064B_
Width: -26
VWidth: 2316
GlyphClass: 4
Flags: HW
AnchorPoint: "Anchor-10" 583.551 1123.65 mark 0
AnchorPoint: "Anchor-9" 583.551 1123.65 mark 0
AnchorPoint: "Anchor-1" 553.285 1596.25 basemark 0
AnchorPoint: "Anchor-1" 583.551 1123.65 mark 0
LayerCount: 2
Fore
SplineSet
317 1076 m 1
 317 1180 l 1
 317 1186.71537562 l 1
 323.216048115 1189.25644144 l 1
 778.216048115 1375.25644144 l 1
 792 1380.89119979 l 1
 792 1366 l 1
 792 1263 l 1
 792 1256.29826689 l 1
 785.801362686 1253.75069507 l 1
 330.801362686 1066.75069507 l 1
 317 1061.07848667 l 1
 317 1076 l 1
317 1288 m 1
 317 1392 l 1
 317 1398.71537562 l 1
 323.216048115 1401.25644144 l 1
 778.216048115 1587.25644144 l 1
 792 1592.89119979 l 1
 792 1578 l 1
 792 1475 l 1
 792 1468.29826689 l 1
 785.801362686 1465.75069507 l 1
 330.801362686 1278.75069507 l 1
 317 1273.07848667 l 1
 317 1288 l 1
EndSplineSet
EndChar

StartChar: uni064C
Encoding: 1612 1612 47
GlifName: uni064C_
Width: -26
VWidth: 2316
GlyphClass: 4
Flags: HW
AnchorPoint: "Anchor-10" 680.906 1278.67 mark 0
AnchorPoint: "Anchor-9" 680.906 1278.67 mark 0
AnchorPoint: "Anchor-1" 637.739 1852.46 basemark 0
AnchorPoint: "Anchor-1" 680.906 1278.67 mark 0
LayerCount: 2
Fore
SplineSet
479 1629 m 0
 479 1731.76552225 552.4963966 1801 652 1801 c 0
 752.064112453 1801 824 1732.53591765 824 1628 c 0
 824 1591.16085925 815.378868534 1552.27469286 801.031294994 1514.97279472 c 1
 814.093104284 1513.34371792 821.9010554 1513 830 1513 c 2
 840 1513 l 1
 840 1503 l 1
 840 1427 l 1
 840 1416.4875078 l 1
 829.500623831 1417.01247661 l 2
 810.968118627 1417.93910187 788.159123035 1419.87699272 760.066529146 1424.73856031 c 1
 695.878207041 1276.81129477 600.310607473 1200.99202128 471.867219481 1200.99202128 c 0
 332.0720901 1200.99202128 261.019531073 1301.70235437 258.001286606 1489.83959283 c 2
 257.864600947 1498.35966558 l 1
 266.255036765 1499.84657825 l 1
 345.255036765 1513.84657825 l 1
 356.754576749 1515.88447142 l 1
 356.997830567 1504.20828814 l 2
 359.988700673 1360.64652305 400.817629911 1299 473 1299 c 0
 539.4246915 1299 601.936332407 1346.48802742 658.376739308 1442.60817591 c 1
 557.781001019 1479.37677148 479 1530.42799523 479 1629 c 0
703.160444539 1534.93682037 m 1
 715.662442249 1565.48638565 726 1599.53496259 726 1627 c 0
 726 1669.85117324 693.892850854 1701 656 1701 c 0
 610.735108636 1701 579 1671.60733904 579 1625 c 0
 579 1579.55048991 639.93500653 1552.41557778 703.160444539 1534.93682037 c 1
EndSplineSet
EndChar

StartChar: uni064D
Encoding: 1613 1613 48
GlifName: uni064D_
Width: -26
VWidth: 2316
GlyphClass: 4
Flags: HW
AnchorPoint: "Anchor-7" 542.278 32.7109 mark 0
AnchorPoint: "Anchor-6" 542.278 32.7109 mark 0
AnchorPoint: "Anchor-0" 592.022 -407.025 basemark 0
AnchorPoint: "Anchor-0" 542.278 32.7109 mark 0
LayerCount: 2
Fore
SplineSet
322 -446 m 1
 322 -342 l 1
 322 -335.279048682 l 1
 328.223161451 -332.74065388 l 1
 784.223161451 -146.74065388 l 1
 798 -141.121153945 l 1
 798 -156 l 1
 798 -260 l 1
 798 -266.720951318 l 1
 791.776838549 -269.25934612 l 1
 335.776838549 -455.25934612 l 1
 322 -460.878846055 l 1
 322 -446 l 1
322 -234 m 1
 322 -130 l 1
 322 -123.279048682 l 1
 328.223161451 -120.74065388 l 1
 784.223161451 65.2593461202 l 1
 798 70.8788460547 l 1
 798 56 l 1
 798 -48 l 1
 798 -54.7209513179 l 1
 791.776838549 -57.2593461202 l 1
 335.776838549 -243.25934612 l 1
 322 -248.878846055 l 1
 322 -234 l 1
EndSplineSet
EndChar

StartChar: uni064E
Encoding: 1614 1614 49
GlifName: uni064E_
Width: -26
VWidth: 2316
GlyphClass: 4
Flags: HW
AnchorPoint: "Anchor-10" 545.66 1397.63 mark 0
AnchorPoint: "Anchor-9" 545.66 1397.63 mark 0
AnchorPoint: "Anchor-1" 541.396 1651.77 basemark 0
AnchorPoint: "Anchor-1" 545.66 1397.63 mark 0
LayerCount: 2
Fore
SplineSet
286 1349 m 1
 286 1453 l 1
 286 1459.72095132 l 1
 292.223161451 1462.25934612 l 1
 748.223161451 1648.25934612 l 1
 762 1653.87884605 l 1
 762 1639 l 1
 762 1535 l 1
 762 1528.27904868 l 1
 755.776838549 1525.74065388 l 1
 299.776838549 1339.74065388 l 1
 286 1334.12115395 l 1
 286 1349 l 1
EndSplineSet
EndChar

StartChar: uni064F
Encoding: 1615 1615 50
GlifName: uni064F_
Width: -26
VWidth: 2316
GlyphClass: 4
Flags: HW
AnchorPoint: "Anchor-10" 591.295 1359.37 mark 0
AnchorPoint: "Anchor-9" 591.295 1359.37 mark 0
AnchorPoint: "Anchor-1" 542.134 1865.4 basemark 0
AnchorPoint: "Anchor-1" 591.295 1359.37 mark 0
LayerCount: 2
Fore
SplineSet
723 1417 m 2
 696.672586134 1417 671.922819741 1418.79781391 647.515202101 1422.22225113 c 1
 578.69926327 1330.31071922 463.042550993 1281.93241039 300.547955996 1273.01502407 c 2
 290 1272.43617283 l 1
 290 1283 l 1
 290 1361 l 1
 290 1370.12583742 l 1
 299.087788707 1370.95830661 l 2
 417.268496548 1381.78402031 498.640466132 1409.42316493 545.393098832 1449.17847415 c 1
 457.136834754 1471.05216959 370 1531.72501055 370 1626 c 0
 370 1729.20445185 443.731478569 1798 543 1798 c 0
 642.596896992 1798 716 1728.67335246 716 1625 c 0
 716 1588.31930976 707.86260554 1550.64768392 693.984631457 1514.10436758 c 1
 704.474070047 1512.77330843 713.132445597 1512 723 1512 c 2
 733 1512 l 1
 733 1502 l 1
 733 1427 l 1
 733 1417 l 1
 723 1417 l 2
594.160444539 1531.93682037 m 1
 606.662442249 1562.48638565 617 1596.53496259 617 1624 c 0
 617 1667.28374682 585.872275552 1697 547 1697 c 0
 501.150271426 1697 470 1668.84130925 470 1622 c 0
 470 1576.55048991 530.93500653 1549.41557778 594.160444539 1531.93682037 c 1
EndSplineSet
EndChar

StartChar: uni0650
Encoding: 1616 1616 51
GlifName: uni0650
Width: -26
VWidth: 2316
GlyphClass: 4
Flags: HW
AnchorPoint: "Anchor-7" 571.144 -44.8242 mark 0
AnchorPoint: "Anchor-6" 571.144 -44.8242 mark 0
AnchorPoint: "Anchor-0" 619.091 -324.624 basemark 0
AnchorPoint: "Anchor-0" 571.144 -44.8242 mark 0
LayerCount: 2
Fore
SplineSet
333 -346 m 1
 333 -242 l 1
 333 -235.284624383 l 1
 339.216048115 -232.74355856 l 1
 794.216048115 -46.7435585601 l 1
 808 -41.108800207 l 1
 808 -56 l 1
 808 -159 l 1
 808 -165.701733113 l 1
 801.801362686 -168.249304932 l 1
 346.801362686 -355.249304932 l 1
 333 -360.921513333 l 1
 333 -346 l 1
EndSplineSet
EndChar

StartChar: uni0651
Encoding: 1617 1617 52
GlifName: uni0651
Width: -26
VWidth: 2393
GlyphClass: 4
Flags: HW
AnchorPoint: "Anchor-10" 598.801 1453.71 mark 0
AnchorPoint: "Anchor-9" 598.801 1453.71 mark 0
AnchorPoint: "Anchor-1" 570.087 1839.1 basemark 0
AnchorPoint: "Anchor-1" 598.801 1453.71 mark 0
LayerCount: 2
Fore
SplineSet
617.993628543 1758.35691531 m 2
 619.001942224 1730.12413226 619.009174284 1703.24601087 620.972681039 1676.73866968 c 0
 625.43563725 1616.48489178 645.692717839 1584 681 1584 c 0
 720.10630762 1584 738 1609.27219198 738 1675 c 0
 738 1698.52444509 732.143521803 1738.28169094 721.208661625 1790.96783543 c 2
 719.078938974 1801.22922639 l 1
 729.428849513 1802.87580306 l 1
 817.428849513 1816.87580306 l 1
 826.124156558 1818.25914737 l 1
 828.59737407 1809.80898753 l 2
 840.849630812 1767.94711033 847 1726.00080397 847 1685 c 0
 847 1547.71619231 795.184775075 1473.07279343 690.05101908 1472 c 0
 650.90853806 1472 608.452011917 1488.24920552 584.138732222 1516.4690507 c 1
 556.145491191 1447.7049043 489.548898937 1428 432 1428 c 0
 331.587669416 1428 283.873817788 1496.27833027 283.873817788 1616.0779836 c 0
 283.873817788 1653.12839481 288.882749168 1687.57592779 297.352361788 1718.63117406 c 2
 299.730110448 1727.34958581 l 1
 308.643989873 1725.86393924 l 1
 386.643989873 1712.86393924 l 1
 397.086130606 1711.12358245 l 1
 394.754410021 1700.79739129 l 2
 387.949485082 1670.66129513 386 1643.4433728 386 1620 c 0
 386 1567.1092627 405.337258194 1546 444 1546 c 0
 518.825537249 1546 521.4140625 1594.56261462 521.4140625 1719.33203125 c 0
 521.4140625 1731.58877154 521.293624535 1744.38847208 521.002363481 1757.78259706 c 2
 520.780181625 1768 l 1
 531 1768 l 1
 608 1768 l 1
 617.649232662 1768 l 1
 617.993628543 1758.35691531 l 2
EndSplineSet
EndChar

StartChar: uni0652
Encoding: 1618 1618 53
GlifName: uni0652
Width: -26
VWidth: 2316
GlyphClass: 4
Flags: HW
AnchorPoint: "Anchor-10" 595.219 1271.43 mark 0
AnchorPoint: "Anchor-9" 595.219 1271.43 mark 0
AnchorPoint: "Anchor-1" 589.537 1682.66 basemark 0
AnchorPoint: "Anchor-1" 595.219 1271.43 mark 0
LayerCount: 2
Fore
SplineSet
411.07421875 1461.82128906 m 0
 411.07421875 1563.51160247 492.714265489 1645.14941406 594.40234375 1645.14941406 c 0
 696.091760807 1645.14941406 777.731445312 1563.50896161 777.731445312 1461.82128906 c 0
 777.731445312 1410.94672565 759.824452385 1367.08661364 724.48115545 1331.7433167 c 0
 689.137372158 1296.40021929 645.276883757 1278.49316406 594.40234375 1278.49316406 c 0
 492.713027067 1278.49316406 411.07421875 1360.1341316 411.07421875 1461.82128906 c 0
512.667473694 1461.02255928 m 0
 511.878032554 1414.7684852 550.003592534 1377.01256091 596.758670814 1376.92872723 c 0
 643.256461851 1377.01319924 681.027914865 1414.642493 680.851490069 1461.02248286 c 0
 681.028073381 1507.3907048 643.251391912 1544.97884388 596.758599542 1545.11421597 c 0
 550.000874211 1544.97984479 511.88184158 1507.00046918 512.667473694 1461.02255928 c 0
EndSplineSet
EndChar

StartChar: uni0653
Encoding: 1619 1619 54
GlifName: uni0653
Width: 11
VWidth: 2551
GlyphClass: 4
Flags: HW
AnchorPoint: "Anchor-10" 402 1465 mark 0
AnchorPoint: "Anchor-9" 402 1465 mark 0
AnchorPoint: "Anchor-1" 387 1771 basemark 0
AnchorPoint: "Anchor-1" 402 1465 mark 0
LayerCount: 2
Fore
SplineSet
323 1729 m 6
 711 1729 l 1
 713 1541 l 1
 343 1541 l 2
 260.619140625 1541 224 1486 193 1414 c 1
 42 1489 l 1
 80 1628 168.157226562 1729 323 1729 c 6
EndSplineSet
EndChar

StartChar: uni0657
Encoding: 1623 1623 57
GlifName: uni0657
Width: -26
VWidth: 2316
GlyphClass: 4
Flags: HW
AnchorPoint: "Anchor-10" 513.285 1400.55 mark 0
AnchorPoint: "Anchor-9" 513.285 1400.55 mark 0
AnchorPoint: "Anchor-1" 537.285 2069.85 basemark 0
AnchorPoint: "Anchor-1" 513.285 1400.55 mark 0
LayerCount: 2
Fore
SplineSet
265.249921912 1814.99687646 m 2
 303.937053169 1814.02969818 345.68248625 1811.15593714 390.496059094 1806.52841897 c 1
 492.274757705 1948.91988621 622.556743554 2027.81479388 784.066592913 2042.95634226 c 2
 795 2043.98134917 l 1
 795 2033 l 1
 795 1955 l 1
 795 1946.49468225 l 1
 786.604937966 1945.12963151 l 2
 670.536380848 1926.25669539 575.665779254 1871.67253031 502.93786593 1783.19564627 c 1
 586.746937685 1755.38953044 668 1698.64701459 668 1599 c 0
 668 1502.6830679 598.72271107 1428 501 1428 c 0
 403.846001283 1428 322 1496.68663051 322 1603 c 0
 322 1630.90288887 328.628189847 1669.41098266 341.715037007 1712.93824855 c 1
 317.995583066 1714.60971679 293.531610965 1716 265 1716 c 2
 255 1716 l 1
 255 1726 l 1
 255 1805 l 1
 255 1815.25312451 l 1
 265.249921912 1814.99687646 l 2
501 1526 m 0
 543.217778735 1526 567 1553.25868907 567 1597 c 0
 567 1647.10826499 506.848893173 1680.36737559 442.966076713 1697.20648817 c 1
 427.349024452 1658.40288448 420 1628.27331069 420 1605 c 0
 420 1558.66289921 456.303816724 1526 501 1526 c 0
EndSplineSet
EndChar

StartChar: uni065A
Encoding: 1626 1626 58
GlifName: uni065A_
Width: 1135
VWidth: 2316
GlyphClass: 4
Flags: HW
AnchorPoint: "Anchor-10" 573.285 1350.55 mark 0
AnchorPoint: "Anchor-9" 573.285 1350.55 mark 0
AnchorPoint: "Anchor-1" 571.012 1862.38 basemark 0
AnchorPoint: "Anchor-1" 573.285 1350.55 mark 0
LayerCount: 2
Fore
SplineSet
493.408736507 1438.88236465 m 1
 300.408736507 1762.88236465 l 1
 291.403478412 1778 l 1
 309 1778 l 1
 433 1778 l 1
 438.743703325 1778 l 1
 441.637789009 1773.03871026 l 1
 573.030711641 1547.79370003 l 1
 705.377888534 1773.06549049 l 1
 708.276912873 1778 l 1
 714 1778 l 1
 838 1778 l 1
 855.643211119 1778 l 1
 846.579598704 1762.86283287 l 1
 652.579598704 1438.86283287 l 1
 649.667902477 1434 l 1
 644 1434 l 1
 502 1434 l 1
 496.317058659 1434 l 1
 493.408736507 1438.88236465 l 1
EndSplineSet
EndChar

StartChar: uni0660
Encoding: 1632 1632 59
GlifName: afii57392
Width: 890
VWidth: 2551
GlyphClass: 2
Flags: HW
LayerCount: 2
Fore
SplineSet
310.599609375 493 m 4
 310.599609375 418.391601562 371.1171875 357.400390625 445 357.400390625 c 4
 518.88671875 357.400390625 579.400390625 418.392578125 579.400390625 493 c 4
 579.400390625 567.608398438 518.8828125 628.599609375 445 628.599609375 c 4
 371.11328125 628.599609375 310.599609375 567.607421875 310.599609375 493 c 4
100 493 m 0
 100 683.126953125 254.872070312 838 445 838 c 0
 635.126953125 838 790 683.127929688 790 493 c 0
 790 302.873046875 635.127929688 148 445 148 c 0
 254.873046875 148 100 302.872070312 100 493 c 0
EndSplineSet
EndChar

StartChar: uni0661
Encoding: 1633 1633 60
GlifName: afii57393
Width: 682
VWidth: 2551
GlyphClass: 2
Flags: HW
LayerCount: 2
Fore
SplineSet
468 4 m 1
 297 4 l 1
 257 4 l 1
 257 44 l 1
 257 260 l 6
 257 623.03515625 216.26953125 938.248046875 136.674804688 1204.54492188 c 6
 125.302734375 1242.59472656 l 5
 163.26953125 1254.24121094 l 5
 326.26953125 1304.24121094 l 5
 364.748046875 1316.04492188 l 5
 376.313476562 1277.49414062 l 6
 464.709960938 982.838867188 508 643.977539062 508 259 c 6
 508 44 l 1
 508 4 l 1
 468 4 l 1
EndSplineSet
EndChar

StartChar: uni0662
Encoding: 1634 1634 61
GlifName: afii57394
Width: 1096
VWidth: 2551
GlyphClass: 2
Flags: HW
LayerCount: 2
Fore
SplineSet
628.849609375 895.982421875 m 4
 776.842773438 895.982421875 776 968.5390625 776 1173 c 6
 776 1268 l 5
 776 1308 l 5
 816 1308 l 5
 981 1308 l 5
 1021 1308 l 5
 1021 1268 l 5
 1021 1177 l 6
 1021 856.971679688 952.671875 637 626 637 c 4
 593.435546875 637 541.024414062 643.625976562 491.116210938 658.635742188 c 5
 501.75 554.069335938 508 414.131835938 508 260 c 6
 508 44 l 1
 508 4 l 1
 468 4 l 1
 297 4 l 1
 257 4 l 1
 257 44 l 1
 257 260 l 6
 257 622.024414062 216.280273438 937.286132812 137.625 1204.71289062 c 6
 126.44921875 1242.7109375 l 5
 164.334960938 1254.26171875 l 5
 328.334960938 1304.26171875 l 5
 369.622070312 1316.84863281 l 5
 379.037109375 1274.72460938 l 5
 453.232421875 942.745117188 l 5
 510.573242188 910.965820312 570.809570312 895.982421875 628.849609375 895.982421875 c 4
EndSplineSet
EndChar

StartChar: uni0663
Encoding: 1635 1635 62
GlifName: afii57395
Width: 1395
VWidth: 2551
GlyphClass: 2
Flags: HW
LayerCount: 2
Fore
SplineSet
576.796875 895.989257812 m 0
 623.278320312 895.989257812 668 945.262695312 668 1062.12109375 c 2
 669.000976562 1227.2421875 l 1
 669.241210938 1267 l 1
 709 1267 l 1
 872 1267 l 1
 912.243164062 1267 l 1
 911.999023438 1226.7578125 l 1
 911 1061.87890625 l 2
 911 949.448242188 935.40625 896 998 896 c 4
 1037.625 896 1085 900.48828125 1085 1067 c 2
 1085 1266 l 1
 1085 1306 l 1
 1125 1306 l 1
 1287 1306 l 1
 1327 1306 l 1
 1327 1266 l 1
 1327 1067 l 2
 1327 800.247070312 1211.27050781 637 1008 637 c 0
 919.541015625 637 851.619140625 665.655273438 799.02734375 724.32421875 c 1
 747.454101562 666.381835938 681.708984375 637 598 637 c 0
 559.172851562 637 522.029296875 646.565429688 490.8125 659.208984375 c 1
 503.133789062 541.837890625 508 412.748046875 508 260 c 2
 508 44 l 1
 508 4 l 1
 468 4 l 1
 297 4 l 1
 257 4 l 1
 257 44 l 1
 257 260 l 2
 257 622.024414062 216.280273438 937.286132812 137.625 1204.71289062 c 2
 126.44921875 1242.7109375 l 1
 164.334960938 1254.26171875 l 1
 328.334960938 1304.26171875 l 1
 369.622070312 1316.84863281 l 1
 379.037109375 1274.72460938 l 1
 453.858398438 939.946289062 l 1
 496.666015625 908.358398438 526.051757812 895.989257812 576.796875 895.989257812 c 0
EndSplineSet
EndChar

StartChar: uni0664
Encoding: 1636 1636 63
GlifName: afii57396
Width: 966
VWidth: 2551
GlyphClass: 2
Flags: HW
LayerCount: 2
Fore
SplineSet
102.000976562 363.337890625 m 0
 103.075195312 507.256835938 214.876953125 578.487304688 401.344726562 678.169921875 c 1
 236.694335938 773.709960938 142 844.330078125 142 975 c 4
 142 1191.44824219 316.666015625 1293.97753906 603.928710938 1295 c 6
 741 1295 l 5
 780.54296875 1295 l 5
 780.997070312 1255.45996094 l 5
 782.997070312 1081.45996094 l 5
 783.458984375 1041.296875 l 5
 743.293945312 1041.00097656 l 5
 607.272460938 1040.00097656 l 6
 458.123046875 1038.98632812 426 1002.45605469 426 969 c 4
 426 928.43359375 509.958007812 888.377929688 745.151367188 799.413085938 c 2
 772.698242188 788.993164062 l 1
 770.927734375 759.594726562 l 1
 760.927734375 593.594726562 l 1
 759.297851562 566.534179688 l 1
 733.55859375 558.022460938 l 2
 477.200195312 473.250976562 384.364257812 435.424804688 384.998046875 371.396484375 c 0
 385.638671875 306.659179688 437.9140625 260 620 260 c 2
 856 260 l 1
 896.229492188 260 l 1
 895.999023438 219.771484375 l 1
 894.999023438 44.771484375 l 1
 894.772460938 5 l 1
 855 5 l 1
 620 5 l 2
 615.723632812 5 611.473632812 5.0185546875 607.248046875 5.0556640625 c 0
 289.036132812 7.8330078125 99.7333984375 122.940429688 102.000976562 363.337890625 c 0
EndSplineSet
EndChar

StartChar: uni0665
Encoding: 1637 1637 64
GlifName: afii57397
Width: 1172
VWidth: 2551
GlyphClass: 2
Flags: HW
LayerCount: 2
Fore
SplineSet
575.834960938 885.497070312 m 5
 393.263671875 672.875 309 574.11328125 309 410 c 0
 309 322.07421875 380.423828125 264 599 264 c 0
 794.989257812 264 857 318.686523438 857 400 c 0
 857 581.393554688 766.588867188 683.143554688 575.834960938 885.497070312 c 5
345.44140625 1117.76757812 m 5
 441.44140625 1265.76757812 l 5
 464.13671875 1300.75585938 l 5
 498.1484375 1276.62109375 l 6
 898.985351562 992.189453125 1110 765.12109375 1110 418 c 0
 1110 138.717773438 926.247070312 -2.0390625 601.879882812 -1 c 0
 259.524414062 0.0283203125 62 134.814453125 62 409 c 0
 62 640.1015625 171.030273438 794.627929688 378.9453125 1047.171875 c 5
 356.0234375 1063.2578125 l 5
 324.454101562 1085.41113281 l 5
 345.44140625 1117.76757812 l 5
EndSplineSet
EndChar

StartChar: uni0666
Encoding: 1638 1638 65
GlifName: afii57398
Width: 1176
VWidth: 2551
GlyphClass: 2
Flags: HW
LayerCount: 2
Fore
SplineSet
113.924804688 1306 m 5
 642.961914062 1307 l 6
 878.358398438 1307 1004 1167.31054688 1004 919 c 6
 1004 44 l 1
 1004 4 l 1
 964 4 l 1
 796 4 l 1
 756 4 l 1
 756 44 l 1
 756 915 l 6
 756 1001.24121094 725.240234375 1032 639 1032 c 6
 114 1032 l 5
 74 1032 l 5
 74 1072 l 5
 74 1266 l 5
 74 1305.92480469 l 5
 113.924804688 1306 l 5
EndSplineSet
EndChar

StartChar: uni0667
Encoding: 1639 1639 66
GlifName: afii57399
Width: 1201
VWidth: 2551
GlyphClass: 2
Flags: HW
LayerCount: 2
Fore
SplineSet
600.04296875 507.880859375 m 5
 669.053710938 754.005859375 772.681640625 1009.73730469 903.72265625 1291.85058594 c 6
 921.329101562 1329.75585938 l 5
 958.42578125 1310.50292969 l 5
 1116.42578125 1228.50292969 l 5
 1152.25 1209.91113281 l 5
 1133.3359375 1174.25585938 l 6
 926.115234375 783.608398438 785.681640625 464.903320312 712.42578125 37.24609375 c 2
 706.73046875 4 l 1
 673 4 l 1
 528 4 l 1
 494.26953125 4 l 1
 488.57421875 37.24609375 l 2
 415.318359375 464.903320312 274.884765625 783.608398438 67.6640625 1174.25585938 c 6
 48.75 1209.91113281 l 5
 84.57421875 1228.50292969 l 5
 242.57421875 1310.50292969 l 5
 279.670898438 1329.75585938 l 5
 297.27734375 1291.85058594 l 6
 428.451171875 1009.45214844 531.2734375 753.77734375 600.04296875 507.880859375 c 5
EndSplineSet
EndChar

StartChar: uni0668
Encoding: 1640 1640 67
GlifName: afii57400
Width: 1201
VWidth: 2551
GlyphClass: 2
Flags: HW
LayerCount: 2
Fore
SplineSet
600.95703125 792.119140625 m 1
 531.946289062 545.994140625 428.318359375 290.262695312 297.27734375 8.1494140625 c 2
 279.670898438 -29.755859375 l 1
 242.57421875 -10.5029296875 l 1
 84.57421875 71.4970703125 l 1
 48.75 90.0888671875 l 1
 67.6640625 125.744140625 l 2
 274.884765625 516.391601562 415.318359375 835.096679688 488.57421875 1262.75390625 c 6
 494.26953125 1296 l 5
 528 1296 l 5
 673 1296 l 5
 706.73046875 1296 l 5
 712.42578125 1262.75390625 l 6
 785.681640625 835.096679688 926.115234375 516.391601562 1133.3359375 125.744140625 c 2
 1152.25 90.0888671875 l 1
 1116.42578125 71.4970703125 l 1
 958.42578125 -10.5029296875 l 1
 921.329101562 -29.755859375 l 1
 903.72265625 8.1494140625 l 2
 772.548828125 290.547851562 669.7265625 546.22265625 600.95703125 792.119140625 c 1
EndSplineSet
EndChar

StartChar: uni0669
Encoding: 1641 1641 68
GlifName: afii57401
Width: 1080
GlyphClass: 2
Flags: HW
LayerCount: 2
Fore
SplineSet
90 887 m 4
 90 1096.921875 256.532226562 1313 485 1313 c 4
 784.8046875 1313 862.30859375 1071.68945312 876.948242188 789.026367188 c 4
 892.294921875 480.091796875 903.307617188 297.5078125 909.986328125 41.041015625 c 2
 911.055664062 -0 l 1
 870 0 l 1
 702 0 l 1
 663.030273438 0 l 1
 662.013671875 38.95703125 l 2
 658.830078125 160.997070312 649.6875 398.389648438 645.33203125 558.618164062 c 5
 605.419921875 550.8046875 553.4140625 544 496 544 c 4
 244.850585938 544 90 647.366210938 90 887 c 4
484 1062 m 4
 406.380859375 1062 336 976.564453125 336 887 c 4
 336 821.446289062 358.693359375 794 499 794 c 4
 531.40625 794 590.58984375 802.317382812 627.901367188 809.975585938 c 5
 621.076171875 906.892578125 609.65234375 974.712890625 580.4765625 1017.4453125 c 4
 561.243164062 1045.61425781 535.801757812 1062 484 1062 c 4
EndSplineSet
EndChar

StartChar: uni066A
Encoding: 1642 1642 69
GlifName: afii57381
Width: 1033
VWidth: 4036
GlyphClass: 2
Flags: HW
LayerCount: 2
Fore
SplineSet
758 1328 m 5
 890 1268 l 5
 927 1252 l 5
 312 -27 l 5
 276 -11 l 5
 143 49 l 5
 107 65 l 5
 722 1345 l 5
 758 1328 l 5
597 213 m 4
 597 308 674 387 770 387 c 4
 866 387 943 308 943 213 c 4
 943 118 865 40 770 40 c 4
 675 40 597 115 597 213 c 4
90 1099 m 4
 90 1194 167 1273 263 1273 c 4
 359 1273 436 1194 436 1099 c 4
 436 1004 358 926 263 926 c 4
 168 926 90 1001 90 1099 c 4
EndSplineSet
EndChar

StartChar: uni066B
Encoding: 1643 1643 70
GlifName: uni066B_
Width: 772
VWidth: 2950
GlyphClass: 2
Flags: HW
LayerCount: 2
Fore
SplineSet
549.651367188 789.810546875 m 1
 676.651367188 735.810546875 l 1
 713.705078125 720.055664062 l 1
 697.70703125 683.106445312 l 1
 235.70703125 -383.893554688 l 1
 219.842773438 -420.532226562 l 1
 183.174804688 -404.736328125 l 1
 53.1748046875 -348.736328125 l 1
 16.2568359375 -332.833007812 l 1
 32.341796875 -295.994140625 l 1
 497.341796875 769.005859375 l 1
 513.194335938 805.3125 l 1
 549.651367188 789.810546875 l 1
EndSplineSet
PairPos2: "'kern' Horizontal Kerning lookup 15-4" uni06F4 dx=-110 dy=0 dh=-110 dv=0 dx=0 dy=0 dh=0 dv=0
PairPos2: "'kern' Horizontal Kerning lookup 15-4" uni06F3 dx=-130 dy=0 dh=-130 dv=0 dx=0 dy=0 dh=0 dv=0
PairPos2: "'kern' Horizontal Kerning lookup 15-4" uni06F2 dx=-130 dy=0 dh=-130 dv=0 dx=0 dy=0 dh=0 dv=0
EndChar

StartChar: uni066C
Encoding: 1644 1644 71
GlifName: uni066C_
Width: 560
GlyphClass: 2
Flags: HW
LayerCount: 2
Fore
SplineSet
153.83923225 -331.878790782 m 1
 58.8392322496 -259.878790782 l 1
 27.7823641149 -236.34095388 l 1
 50.5011230928 -204.67998714 l 2
 109.377942623 -122.628981332 144.45252224 -28.8581223025 147 52.589489279 c 2
 147 219 l 1
 147 259 l 1
 187 259 l 1
 358 259 l 1
 398 259 l 1
 398 219 l 1
 398 74 l 2
 398 -93.3026811426 300.507182337 -251.92004103 203.239399703 -331.031801472 c 2
 178.871862629 -350.850889596 l 1
 153.83923225 -331.878790782 l 1
EndSplineSet
EndChar

StartChar: uni066D
Encoding: 1645 1645 72
GlifName: afii63167
Width: 1436
VWidth: 2948
GlyphClass: 2
Flags: HW
LayerCount: 2
Fore
SplineSet
151 1119 m 1
 554.036132812 1119 l 1
 679.997070312 1502.48242188 l 1
 718 1618.17871094 l 1
 756.002929688 1502.48242188 l 1
 881.963867188 1119 l 1
 1285 1119 l 1
 1407.16015625 1119 l 1
 1308.65820312 1046.74707031 l 1
 983.022460938 807.884765625 l 1
 1108.02050781 425.426757812 l 1
 1146.16601562 308.712890625 l 1
 1046.59375 380.563476562 l 1
 718 617.673828125 l 1
 389.40625 380.563476562 l 1
 289.833984375 308.712890625 l 1
 327.979492188 425.426757812 l 1
 452.977539062 807.884765625 l 1
 127.341796875 1046.74707031 l 1
 28.83984375 1119 l 1
 151 1119 l 1
EndSplineSet
EndChar

StartChar: uni066E
Encoding: 1646 1646 73
GlifName: uni066E_
Width: 1885
VWidth: 2551
GlyphClass: 2
Flags: HW
AnchorPoint: "Anchor-10" 878 1268 basechar 0
AnchorPoint: "Anchor-7" 918 -177 basechar 0
LayerCount: 2
Fore
SplineSet
535 260 m 2
 1360 260 l 2
 1505.87109375 260 1571 324.588867188 1571 483 c 2
 1571 680 l 1
 1571 720 l 1
 1611 720 l 1
 1785 720 l 1
 1825 720 l 1
 1825 680 l 1
 1825 486 l 2
 1825 171.612304688 1664.16113281 0 1357 0 c 2
 538 0 l 2
 231.006835938 0 60 168.114257812 60 482 c 2
 60 683 l 1
 60 723 l 1
 100 723 l 1
 274 723 l 1
 314 723 l 1
 314 683 l 1
 314 483 l 2
 314 326.71484375 381.072265625 260 535 260 c 2
EndSplineSet
Substitution2: "'fina' Terminal Forms in Arabic lookup 9 subtable" uni066E.fina
EndChar

StartChar: uni066F
Encoding: 1647 1647 74
GlifName: uni066F_
Width: 1431
VWidth: 2551
GlyphClass: 2
Flags: HW
AnchorPoint: "Anchor-10" 354 1200 basechar 0
AnchorPoint: "Anchor-7" 425 -675 basechar 0
LayerCount: 2
Fore
SplineSet
1371 388 m 2
 1371 -26 l 2
 1371 -352.887695312 1061.12109375 -449 744 -449 c 2
 693 -449 l 2
 282.630859375 -449 60 -248.262695312 60 141 c 2
 60 482 l 1
 60 522 l 1
 100 522 l 1
 274 522 l 1
 314 522 l 1
 314 482 l 1
 314 142 l 2
 314 -83.3662109375 430.090820312 -190 693 -190 c 2
 744 -190 l 2
 1001.00976562 -190 1120.98828125 -124.015625 1121.00097656 -26.0009765625 c 2
 1121.00097656 0 l 1
 999 0 l 2
 748.983398438 0 610.993164062 133.399414062 610.993164062 379.083007812 c 0
 610.993164062 615.541015625 740.705078125 805 998 805 c 0
 1234.35644531 805 1371 635.509765625 1371 388 c 2
858 383 m 0
 858 296.868164062 893.884765625 260 998 260 c 2
 1122 260 l 1
 1122 389 l 2
 1122 511.123046875 1071.70703125 553 994 553 c 0
 903.130859375 553 858 500.129882812 858 383 c 0
EndSplineSet
Substitution2: "'fina' Terminal Forms in Arabic lookup 9 subtable" uni066F.fina
EndChar

StartChar: uni0670
Encoding: 1648 1648 75
GlifName: uni0670
Width: -29
VWidth: 2574
GlyphClass: 4
Flags: HW
AnchorPoint: "Anchor-10" 646.984 1500.61 mark 0
AnchorPoint: "Anchor-9" 646.984 1500.61 mark 0
AnchorPoint: "Anchor-1" 646.984 1957.18 basemark 0
AnchorPoint: "Anchor-1" 646.984 1500.61 mark 0
LayerCount: 2
Fore
SplineSet
593 1568 m 5
 593 1930 l 5
 593 1940 l 5
 603 1940 l 5
 691 1940 l 5
 701 1940 l 5
 701 1930 l 5
 701 1568 l 5
 701 1558 l 5
 691 1558 l 5
 603 1558 l 5
 593 1558 l 5
 593 1568 l 5
EndSplineSet
EndChar

StartChar: uni0674
Encoding: 1652 1652 76
GlifName: uni0674
Width: 551
VWidth: 2539
GlyphClass: 2
Flags: HW
LayerCount: 2
Fore
SplineSet
164.812134069 1974.81670084 m 1
 123.146650992 2014.91475013 106 2064.13137366 106 2133 c 0
 106 2266.94935017 206.8541796 2351 337 2351 c 0
 387.270353965 2351 435.168755289 2335.59512765 478.309611908 2308.7159008 c 2
 482.979222455 2305.80646573 l 1
 483.021193397 2300.30480111 l 1
 483.930373084 2181.12706674 l 1
 484.066349428 2163.30291955 l 1
 468.783830937 2172.47697761 l 2
 428.637281186 2196.57685217 390.518500334 2208 351 2208 c 0
 282.831613351 2208 241 2183.28000797 241 2120.06253124 c 0
 241.954472021 2081.89915625 262.341443189 2053.09350193 322.660463124 2030.71686043 c 0
 328.970420774 2028.61321838 334.361266972 2027.1953125 338.90234375 2027.1953125 c 0
 341.480321442 2027.1953125 340.243230486 2027.03579181 345.351718766 2028.15796749 c 0
 389.183666235 2036.56471042 434.715630664 2046.18232965 478.064614884 2054.73371126 c 2
 490 2057.08818472 l 1
 490 2044.92278447 l 1
 490 1928.93916352 l 1
 490 1921.06122011 l 1
 482.340956508 1919.21702782 l 1
 85.3409565083 1823.62489023 l 1
 73 1820.6533577 l 1
 73 1833.34702593 l 1
 73 1946.00679526 l 1
 73 1953.99267371 l 1
 80.7880683723 1955.75909542 l 1
 164.812134069 1974.81670084 l 1
EndSplineSet
EndChar

StartChar: uni06A1
Encoding: 1697 1697 80
GlifName: uni06A_1
Width: 1842
VWidth: 2551
GlyphClass: 2
Flags: HW
AnchorPoint: "Anchor-10" 502 1245 basechar 0
AnchorPoint: "Anchor-7" 519 -147 basechar 0
LayerCount: 2
Fore
SplineSet
1030 666 m 0
 1030 888.927734375 1167.6796875 1060 1410 1060 c 0
 1651.41308594 1060 1782 910.919921875 1782 694 c 2
 1782 375 l 2
 1782 125.88671875 1627.1640625 0 1306 0 c 2
 536 0 l 2
 228.837890625 0 60 168.369140625 60 482 c 2
 60 683 l 1
 60 723 l 1
 100 723 l 1
 274 723 l 1
 314 723 l 1
 314 683 l 1
 314 483 l 2
 314 326.283203125 379.356445312 260 533 260 c 2
 1309 260 l 2
 1511.79882812 260 1533.26660156 307.418945312 1538.18554688 359.272460938 c 1
 1498.52539062 356.075195312 1463.00195312 354 1426 354 c 0
 1178.62695312 354 1030 441.750976562 1030 666 c 0
1412 809 m 0
 1316.18164062 809 1275 766.233398438 1275 677 c 0
 1275 611.58984375 1299.02246094 598 1434 598 c 0
 1469.54296875 598 1504.75585938 600.27734375 1539 603.838867188 c 1
 1539 697 l 2
 1539 767.634765625 1504.94433594 809 1412 809 c 0
EndSplineSet
Substitution2: "'init' Initial Forms in Arabic lookup 13 subtable" uni06A1.init
Substitution2: "'medi' Medial Forms in Arabic lookup 11 subtable" uni06A1.medi
Substitution2: "'fina' Terminal Forms in Arabic lookup 9 subtable" uni06A1.fina
EndChar

StartChar: uni06A9
Encoding: 1705 1705 81
GlifName: uni06A_9
Width: 1855
VWidth: 2551
GlyphClass: 2
Flags: HW
AnchorPoint: "Anchor-10" 1065 1369 basechar 0
AnchorPoint: "Anchor-7" 848 -193 basechar 0
LayerCount: 2
Fore
SplineSet
1269.54980469 1015.61914062 m 5
 1538.28613281 704.12890625 l 2
 1653 570 1715.02148438 466.85546875 1715.02148438 353.68359375 c 0
 1715.02148438 123.926757812 1545.65234375 0 1257 0 c 2
 532 0 l 2
 224.498046875 0 60 168.883789062 60 482 c 2
 60 683 l 1
 60 723 l 1
 100 723 l 1
 275 723 l 1
 315 723 l 1
 315 683 l 1
 315 483 l 2
 315 326.5 381.213867188 260 535 260 c 2
 1259 260 l 2
 1424.9921875 260 1469 302.598632812 1469 354 c 0
 1469 368.759765625 1441.68261719 425.90234375 1366.84082031 510.723632812 c 2
 1052.67675781 875.9140625 l 2
 1016.734375 917.693359375 987 970.486328125 987 1038.25 c 0
 988.208984375 1134.93164062 1043 1204 1133.609375 1234.03222656 c 6
 1770.49023438 1442.18359375 l 5
 1770.49023438 1387.0234375 l 5
 1770.49023438 1208.0234375 l 5
 1770.49023438 1179 l 5
 1269.54980469 1015.61914062 l 5
EndSplineSet
Substitution2: "'init' Initial Forms in Arabic lookup 13 subtable" uniFB90
Substitution2: "'medi' Medial Forms in Arabic lookup 11 subtable" uniFB91
Substitution2: "'fina' Terminal Forms in Arabic lookup 9 subtable" uniFB8F
EndChar

StartChar: uni06BA
Encoding: 1722 1722 83
GlifName: afii57514
Width: 1437
VWidth: 2551
GlyphClass: 2
Flags: HW
AnchorPoint: "Anchor-10" 597 963 basechar 0
AnchorPoint: "Anchor-7" 701 -668 basechar 0
LayerCount: 2
Fore
SplineSet
1377 671 m 1
 1377 91.5224609375 l 1
 1368.421875 -267.67578125 1140.95507812 -449 744 -449 c 2
 693 -449 l 2
 282.630859375 -449 60 -248.262695312 60 141 c 2
 60 482 l 1
 60 522 l 1
 100 522 l 1
 274 522 l 1
 314 522 l 1
 314 482 l 1
 314 142 l 2
 314 -83.3662109375 430.090820312 -190 693 -190 c 2
 744 -190 l 2
 1011.62695312 -190 1121 -96.7333984375 1121 87 c 2
 1121 671 l 1
 1121 711 l 1
 1161 711 l 1
 1337 711 l 1
 1377 711 l 1
 1377 671 l 1
EndSplineSet
Substitution2: "'fina' Terminal Forms in Arabic lookup 9 subtable" uniFB9F
EndChar

StartChar: uni06F4
Encoding: 1780 1780 90
GlifName: uni06F_4
Width: 1186
VWidth: 2551
GlyphClass: 2
Flags: HW
LayerCount: 2
Fore
SplineSet
689.356445312 836.955078125 m 0
 727.870117188 827.688476562 796.337890625 818 857 818 c 0
 911.3671875 818 985.599609375 830 1064.61523438 862.922851562 c 2
 1118.96679688 885.569335938 l 1
 1119.99414062 826.697265625 l 1
 1122.99414062 654.697265625 l 1
 1123.46386719 627.7421875 l 1
 1098.65429688 617.190429688 l 2
 1005.30371094 577.489257812 909.53125 565 837 565 c 0
 710.125976562 565 595.092773438 597.62890625 491.709960938 642.741210938 c 1
 502.48046875 519.2578125 508 383.0703125 508 260 c 2
 508 44 l 1
 508 4 l 1
 468 4 l 1
 297 4 l 1
 257 4 l 1
 257 44 l 1
 257 260 l 2
 257 621.015625 216.286132812 936.282226562 137.614257812 1204.75097656 c 2
 126.505859375 1242.65722656 l 1
 164.26953125 1254.24121094 l 1
 327.26953125 1304.24121094 l 1
 368.528320312 1316.89746094 l 1
 378.020507812 1274.79785156 l 1
 459.501953125 913.405273438 l 2
 461.456054688 912.296875 472.833007812 906.095703125 473.958984375 905.475585938 c 5
 490.58984375 1149.84863281 608.900390625 1307 829 1307 c 0
 898.782226562 1307 977.327148438 1294.21582031 1064.20019531 1239.91992188 c 2
 1085.32226562 1226.71875 l 1
 1082.79296875 1201.93945312 l 1
 1067.79296875 1054.93945312 l 1
 1061.72265625 995.443359375 l 1
 1009.05273438 1023.77246094 l 2
 950.208984375 1055.421875 894.784179688 1065.00195312 850.442382812 1065.00195312 c 0
 750.728515625 1065.00195312 685.55859375 1011.02929688 685.55859375 839.219726562 c 0
 685.55859375 838.505859375 685.56640625 837.892578125 685.56640625 837.892578125 c 17
 687.111328125 837.498046875 687.966796875 837.2890625 689.356445312 836.955078125 c 0
EndSplineSet
PairPos2: "'kern' Horizontal Kerning lookup 15-4" uni06F9 dx=-64 dy=0 dh=-64 dv=0 dx=0 dy=0 dh=0 dv=0
PairPos2: "'kern' Horizontal Kerning lookup 15-4" uni06F1 dx=-64 dy=0 dh=-64 dv=0 dx=0 dy=0 dh=0 dv=0
PairPos2: "'kern' Horizontal Kerning lookup 15-4" uni06F8 dx=-64 dy=0 dh=-64 dv=0 dx=0 dy=0 dh=0 dv=0
PairPos2: "'kern' Horizontal Kerning lookup 15-4" uni06F5 dx=-40 dy=0 dh=-40 dv=0 dx=0 dy=0 dh=0 dv=0
PairPos2: "'kern' Horizontal Kerning lookup 15-4" uni06F0 dx=-64 dy=0 dh=-64 dv=0 dx=0 dy=0 dh=0 dv=0
EndChar

StartChar: uni06F5
Encoding: 1781 1781 91
GlifName: uni06F_5
Width: 1218
VWidth: 2551
GlyphClass: 2
Flags: HW
LayerCount: 2
Fore
SplineSet
611.44921875 887.5234375 m 1
 393.3671875 619.73046875 304 509.461914062 304 364 c 0
 304 281.772460938 321.83984375 260 375 260 c 0
 453.458984375 260 492.185546875 269.708984375 500.049804688 426.997070312 c 6
 501.950195312 465 l 5
 540 465 l 5
 679 465 l 5
 717.245117188 465 l 5
 718.959960938 426.79296875 l 6
 725.850585938 273.219726562 765.431640625 260 842 260 c 0
 898.2890625 260 916.009765625 277.174804688 916.009765625 361.579101562 c 0
 916.009765625 523.186523438 810.747070312 634.815429688 611.44921875 887.5234375 c 1
609.765625 120.521484375 m 1
 559.040039062 44.5517578125 484.74609375 0 378 0 c 0
 163.3359375 0 60 144.537109375 60 360 c 0
 60 612.810546875 236.016601562 808.375 443.022460938 1068.83691406 c 1
 415.919921875 1097.53515625 l 1
 390.9375 1123.98632812 l 1
 414.91015625 1151.35546875 l 1
 534.91015625 1288.35546875 l 1
 563.517578125 1321.015625 l 1
 593.728515625 1289.83300781 l 2
 938.409179688 934.06640625 1158 646.10546875 1158 360 c 0
 1158 142.528320312 1055.34765625 0 839 0 c 0
 731.125976562 0 658.45703125 46.0634765625 609.765625 120.521484375 c 1
EndSplineSet
PairPos2: "'kern' Horizontal Kerning lookup 15-4" uni06F8 dx=-38 dy=0 dh=-38 dv=0 dx=0 dy=0 dh=0 dv=0
PairPos2: "'kern' Horizontal Kerning lookup 15-4" uni06F7 dx=-100 dy=0 dh=-100 dv=0 dx=0 dy=0 dh=0 dv=0
PairPos2: "'kern' Horizontal Kerning lookup 15-4" uni06F6 dx=-42 dy=0 dh=-42 dv=0 dx=0 dy=0 dh=0 dv=0
PairPos2: "'kern' Horizontal Kerning lookup 15-4" uni06F4 dx=-42 dy=0 dh=-42 dv=0 dx=0 dy=0 dh=0 dv=0
PairPos2: "'kern' Horizontal Kerning lookup 15-4" uni06F3 dx=-100 dy=0 dh=-100 dv=0 dx=0 dy=0 dh=0 dv=0
PairPos2: "'kern' Horizontal Kerning lookup 15-4" uni06F2 dx=-100 dy=0 dh=-100 dv=0 dx=0 dy=0 dh=0 dv=0
EndChar

StartChar: uni06F6
Encoding: 1782 1782 92
GlifName: uni06F_6
Width: 1000
VWidth: 2551
GlyphClass: 2
Flags: HW
LayerCount: 2
Fore
SplineSet
540 1063 m 0
 420.064453125 1063 343.97265625 1000.64648438 343.97265625 896.733398438 c 0
 343.97265625 797.427734375 421.299804688 744.5703125 576.974609375 744.5703125 c 0
 601.432617188 744.5703125 619.08203125 744.783203125 642.129882812 760.817382812 c 0
 699.512695312 800.876953125 758 860 834.842773438 923.749023438 c 1
 856.639648438 886.002929688 l 1
 938.639648438 744.002929688 l 1
 955.774414062 714.329101562 l 1
 781.1328125 573.737304688 623.843071036 415.373028022 374.30859375 -51.4716796875 c 1
 339.866210938 -35.14453125 l 1
 185.866210938 37.85546875 l 1
 148.018554688 55.7958984375 l 1
 260 268 343 387 445.251953125 516.752929688 c 5
 215.766601562 553.801757812 95 684.8046875 95 887 c 0
 95 1130.16601562 263.49609375 1309 506 1309 c 0
 592.194335938 1309 669.240234375 1291.93066406 734.323242188 1256.0234375 c 2
 755.147460938 1244.53320312 l 1
 754.999023438 1220.75 l 1
 753.999023438 1060.75 l 1
 753.594726562 995.958007812 l 1
 695.852539062 1025.35351562 l 2
 646.2265625 1050.61816406 594.818359375 1063 540 1063 c 0
EndSplineSet
PairPos2: "'kern' Horizontal Kerning lookup 15-4" uni06F9 dx=-30 dy=0 dh=-30 dv=0 dx=0 dy=0 dh=0 dv=0
PairPos2: "'kern' Horizontal Kerning lookup 15-4" uni06F8 dx=-40 dy=0 dh=-40 dv=0 dx=0 dy=0 dh=0 dv=0
PairPos2: "'kern' Horizontal Kerning lookup 15-4" uni06F7 dx=-40 dy=0 dh=-40 dv=0 dx=0 dy=0 dh=0 dv=0
EndChar

StartChar: uniFB8F
Encoding: 64399 64399 107
GlifName: uniF_B_8F_
Width: 2020
VWidth: 2551
GlyphClass: 2
Flags: HW
AnchorPoint: "Anchor-7" 848 -193 basechar 0
AnchorPoint: "Anchor-10" 1065 1369 basechar 0
LayerCount: 2
Fore
SplineSet
2027 0 m 6
 2012 0 l 2
 1880 0 1763.92871094 59.376953125 1668.91503906 168.213867188 c 1
 1597.48730469 50.787109375 1455.23925781 0 1257 0 c 2
 532 0 l 2
 224.498046875 0 60 168.883789062 60 482 c 2
 60 683 l 1
 60 723 l 1
 100 723 l 1
 275 723 l 1
 315 723 l 1
 315 683 l 1
 315 483 l 2
 315 327.360351562 380.397460938 260 535 260 c 2
 1259 260 l 2
 1424.9921875 260 1469 302.598632812 1469 354 c 0
 1469 368.759765625 1441.68261719 425.90234375 1366.84082031 510.723632812 c 2
 1052.67675781 875.913085938 l 2
 1015.45507812 919.1796875 987 970.952148438 987 1038.25 c 0
 988.208984375 1134.93164062 1043 1204 1133.609375 1234.03222656 c 2
 1770.49023438 1442.18359375 l 1
 1770.49023438 1387.0234375 l 1
 1770.49023438 1208.0234375 l 1
 1770.49023438 1179 l 1
 1269.54980469 1015.61914062 l 1
 1801.25 401.170898438 l 2
 1888 301 1958 260 2003.32128906 260 c 2
 2027 260 l 6
 2044 260 2052 178.0859375 2052 137 c 6
 2052 126 l 6
 2052 83.5537109375 2045 0 2027 0 c 6
EndSplineSet
EndChar

StartChar: uniFB9F
Encoding: 64415 64415 115
GlifName: uniF_B_9F_
Width: 1590
VWidth: 2551
GlyphClass: 2
Flags: HW
AnchorPoint: "Anchor-7" 691 -628 basechar 0
AnchorPoint: "Anchor-10" 644 846 basechar 0
LayerCount: 2
Fore
SplineSet
1595 0 m 6
 1557 0 l 2
 1482 0 1414.60253906 11.6005859375 1362.24511719 36.5107421875 c 1
 1341.09179688 -287.092773438 1125.11230469 -449 744 -449 c 2
 693 -449 l 2
 282.630859375 -449 60 -248.262695312 60 141 c 2
 60 482 l 1
 60 522 l 1
 100 522 l 1
 274 522 l 1
 314 522 l 1
 314 482 l 1
 314 142 l 2
 314 -83.3662109375 430.090820312 -190 693 -190 c 2
 744 -190 l 2
 1011.62695312 -190 1121 -96.7333984375 1121 87 c 2
 1121 671 l 1
 1121 711 l 1
 1161 711 l 1
 1337 711 l 1
 1377 711 l 1
 1377 671 l 1
 1377 437 l 2
 1377 303.776367188 1428 260 1566 260 c 2
 1595 260 l 6
 1612 260 1620 178.0859375 1620 137 c 6
 1620 126 l 6
 1620 83.5537109375 1613 0 1595 0 c 6
EndSplineSet
EndChar

StartChar: uniFBE8
Encoding: 64488 64488 118
GlifName: uniF_B_E_8
Width: 757
VWidth: 2551
GlyphClass: 2
Flags: HW
AnchorPoint: "Anchor-10" 450 1258 basechar 0
AnchorPoint: "Anchor-7" 467 -104 basechar 0
LayerCount: 2
Fore
SplineSet
-5 260 m 6
 278 260 l 2
 399 260 440 286.045898438 440 413 c 2
 440 707 l 1
 440 747 l 1
 480 747 l 1
 654 747 l 1
 694 747 l 1
 694 707 l 1
 694 412 l 2
 694 144.931640625 548 0 279 0 c 2
 -5 0 l 6
 -23 0 -30 83.5703125 -30 126 c 6
 -30 137 l 6
 -30 178.266601562 -22 260 -5 260 c 6
EndSplineSet
EndChar

StartChar: uniFBE9
Encoding: 64489 64489 119
GlifName: uniF_B_E_9
Width: 877
VWidth: 2551
GlyphClass: 2
Flags: HW
AnchorPoint: "Anchor-10" 370 1164 basechar 0
AnchorPoint: "Anchor-7" 409 -109 basechar 0
LayerCount: 2
Fore
SplineSet
882 0 m 6
 861 0 l 2
 728 0 634.83203125 37.0703125 570.571289062 112.026367188 c 1
 493.3671875 34.7841796875 387 0 236 0 c 2
 -5 0 l 2
 -23 0 -30 83.5703125 -30 126 c 2
 -30 137 l 2
 -30 178.266601562 -22 260 -5 260 c 2
 241 260 l 2
 398 260 442 308.784179688 442 415 c 2
 442 673 l 1
 442 713 l 1
 482 713 l 1
 653 713 l 1
 693 713 l 1
 693 673 l 1
 693 415 l 2
 693 303.000976562 726 260 860 260 c 2
 882 260 l 6
 899 260 907 178.0859375 907 137 c 6
 907 126 l 6
 907 83.5537109375 900 0 882 0 c 6
EndSplineSet
EndChar

StartChar: uniFE73
Encoding: 65139 65139 127
GlifName: uniF_E_73
Width: 660
VWidth: 2950
GlyphClass: 2
Flags: HW
AnchorPoint: "Anchor-10" 331 1050 basechar 0
AnchorPoint: "Anchor-7" 405 -168 basechar 0
LayerCount: 2
Fore
SplineSet
326 464 m 2
 326 329.610351562 404.03515625 262 606 262 c 2
 673 262 l 1
 675 262 l 1
 715 262 l 1
 715 222 l 1
 715 220 l 1
 715 42 l 1
 715 40 l 1
 715 0 l 1
 675 0 l 1
 673 0 l 1
 596 0 l 2
 249.663085938 0 60 160.671875 60 467 c 2
 60 487 l 1
 60 489 l 1
 60 529 l 1
 100 529 l 1
 102 529 l 1
 284 529 l 1
 286 529 l 1
 326 529 l 1
 326 489 l 1
 326 487 l 1
 326 464 l 2
EndSplineSet
EndChar

StartChar: uniFE8E
Encoding: 65166 65166 153
GlifName: uniF_E_8E_
Width: 516
VWidth: 2551
GlyphClass: 2
Flags: HW
AnchorPoint: "Anchor-10" 224 1463 basechar 0
AnchorPoint: "Anchor-7" 262 -207 basechar 0
LayerCount: 2
Fore
SplineSet
522 0 m 6
 476 0 l 2
 235 0 110 151 110 415 c 2
 110 1293 l 1
 110 1333 l 1
 150 1333 l 1
 316 1333 l 1
 356 1333 l 1
 356 1293 l 1
 356 414 l 2
 356 299 396 260 479 260 c 2
 522 260 l 6
 539 260 547 178.0859375 547 137 c 6
 547 126 l 6
 547 83.5537109375 540 0 522 0 c 6
EndSplineSet
EndChar

StartChar: uniFEA2
Encoding: 65186 65186 173
GlifName: uniF_E_A_2
Width: 1359
VWidth: 2551
GlyphClass: 2
Flags: HW
AnchorPoint: "Anchor-7" 743.334 -835.653 basechar 0
AnchorPoint: "Anchor-10" 657.5 1112.5 basechar 0
LayerCount: 2
Fore
SplineSet
1364 0 m 6
 1312 0 l 2
 1109 0 926.1484375 90.0625 891.310546875 284.436523438 c 1
 578.6875 212.673828125 312 84.45703125 312 -152 c 0
 312 -343.533203125 451.447265625 -439 802 -439 c 2
 1194 -439 l 1
 1234 -439 l 1
 1234 -479 l 1
 1234 -655 l 1
 1234 -695 l 1
 1194 -695 l 1
 790 -695 l 2
 369.696289062 -695 60 -531.930664062 60 -155 c 0
 60 196.88671875 330.413085938 420.068359375 810.12890625 520.923828125 c 1
 775.729492188 539.948242188 l 2
 693.443359375 584.91796875 622.048828125 607 554 607 c 0
 476.930664062 607 424.690429688 582.174804688 348.869140625 522.669921875 c 2
 278.041015625 465.80859375 l 1
 248.419921875 442.02734375 l 1
 223.141601562 470.3828125 l 1
 108.141601562 599.3828125 l 1
 80.927734375 629.909179688 l 1
 112.05078125 656.440429688 l 1
 173.146484375 708.522460938 l 2
 296.608398438 812.436523438 409.833984375 870 548 870 c 0
 650.10546875 870 752.262695312 839.375976562 853.983398438 780.650390625 c 2
 1042.94238281 671.674804688 l 2
 1106.71191406 635.100585938 1173.55859375 612.228515625 1221.27832031 602.133789062 c 2
 1253 595.423828125 l 1
 1253 563 l 1
 1253 381 l 1
 1253 345.979492188 l 1
 1218.28613281 341.350585938 l 2
 1186.51074219 337.114257812 1152.46289062 332.301757812 1119.25585938 327.2109375 c 1
 1133.26074219 289.567382812 1185 260 1313 260 c 2
 1364 260 l 6
 1381 260 1389 178.0859375 1389 137 c 6
 1389 126 l 6
 1389 83.5537109375 1382 0 1364 0 c 6
EndSplineSet
EndChar

StartChar: uniFEA3
Encoding: 65187 65187 174
GlifName: uniF_E_A_3
Width: 1302
VWidth: 2551
GlyphClass: 2
Flags: HW
AnchorPoint: "Anchor-10" 559 1143 basechar 0
AnchorPoint: "Anchor-7" 425 -202 basechar 0
LayerCount: 2
Fore
SplineSet
-5 260 m 6
 320 260 l 2
 453 260 574.591796875 289.09765625 688.291015625 347.874023438 c 1
 909.083984375 451.821289062 l 1
 774.590820312 526.024414062 l 2
 692.322265625 571.94140625 621.469726562 593 553 593 c 0
 475.930664062 593 423.690429688 568.174804688 347.869140625 508.669921875 c 2
 277.041015625 451.80859375 l 1
 247.419921875 428.02734375 l 1
 222.141601562 456.3828125 l 1
 107.141601562 585.3828125 l 1
 79.927734375 615.909179688 l 1
 111.05078125 642.440429688 l 1
 172.146484375 694.522460938 l 2
 295.608398438 798.436523438 408.833984375 856 547 856 c 0
 649.10546875 856 751.262695312 825.375976562 852.983398438 766.650390625 c 2
 1041.94238281 657.674804688 l 2
 1105.71191406 621.100585938 1172.55859375 598.228515625 1220.27832031 588.133789062 c 2
 1252 581.423828125 l 1
 1252 549 l 1
 1252 369 l 1
 1252 344.383789062 l 1
 1230.02539062 333.291992188 l 1
 812.6328125 122.598632812 l 1
 662.274414062 40.3076171875 499 0 322 0 c 2
 -5 0 l 6
 -23 0 -30 83.5703125 -30 126 c 6
 -30 137 l 6
 -30 178.266601562 -22 260 -5 260 c 6
EndSplineSet
EndChar

StartChar: uniFEA4
Encoding: 65188 65188 175
GlifName: uniF_E_A_4
Width: 1349
VWidth: 2551
GlyphClass: 2
Flags: HW
AnchorPoint: "Anchor-7" 425 -202 basechar 0
AnchorPoint: "Anchor-10" 559 1143 basechar 0
LayerCount: 2
Fore
SplineSet
1354 0 m 6
 1236 0 l 2
 1068 0 967.94140625 72.6064453125 899.732421875 169.446289062 c 1
 813.092773438 122.850585938 l 2
 663.4296875 40.744140625 499 0 322 0 c 2
 -5 0 l 2
 -23 0 -30 83.5703125 -30 126 c 2
 -30 137 l 2
 -30 178.266601562 -22 260 -5 260 c 2
 320 260 l 2
 454 260 574.518554688 288.1015625 688.169921875 347.817382812 c 1
 909.083984375 451.821289062 l 1
 774.590820312 526.024414062 l 2
 692.322265625 571.94140625 621.469726562 593 553 593 c 0
 475.930664062 593 423.690429688 568.174804688 347.869140625 508.669921875 c 2
 277.041015625 451.80859375 l 1
 247.419921875 428.02734375 l 1
 222.141601562 456.3828125 l 1
 107.141601562 585.3828125 l 1
 79.927734375 615.909179688 l 1
 111.05078125 642.440429688 l 1
 172.146484375 694.522460938 l 2
 295.608398438 798.436523438 408.833984375 856 547 856 c 0
 649.10546875 856 751.262695312 825.375976562 852.983398438 766.650390625 c 2
 1041.94238281 657.674804688 l 2
 1105.71191406 621.100585938 1172.55859375 598.228515625 1220.27832031 588.133789062 c 2
 1252 581.423828125 l 1
 1252 549 l 1
 1252 369 l 1
 1252 343.73046875 l 1
 1229.18066406 332.876953125 l 1
 1123.13671875 282.442382812 l 1
 1153.078125 267.3359375 1188 260 1233 260 c 2
 1354 260 l 6
 1371 260 1379 178.0859375 1379 137 c 6
 1379 126 l 6
 1379 83.5537109375 1372 0 1354 0 c 6
EndSplineSet
EndChar

StartChar: uniFEA9
Encoding: 65193 65193 180
GlifName: uniF_E_A_9
Width: 1004
VWidth: 2551
GlyphClass: 2
Flags: HW
AnchorPoint: "Anchor-7" 424 -225 basechar 0
AnchorPoint: "Anchor-10" 448 1166 basechar 0
LayerCount: 2
Fore
SplineSet
352 809 m 5
 473 945 l 1029
464 0 m 6
 100 0 l 5
 100 180 l 5
 465 180 l 1030
EndSplineSet
Refer: 23 1583 N 1 0 0 1 0 0 2
EndChar

StartChar: uniFEAA
Encoding: 65194 65194 181
GlifName: uniF_E_A_A_
Width: 1204
VWidth: 2551
GlyphClass: 2
Flags: HW
AnchorPoint: "Anchor-7" 424 -185 basechar 0
AnchorPoint: "Anchor-10" 448 1206 basechar 0
LayerCount: 2
Fore
SplineSet
1209 0 m 2
 1193 0 l 2
 1056 0 974 68.9736328125 885.720703125 156.1953125 c 1
 810.026367188 56.7001953125 667.637695312 0 464 0 c 2
 100 0 l 1
 60 0 l 1
 60 40 l 1
 60 220 l 1
 60 260 l 1
 100 260 l 1
 465 260 l 2
 656.374023438 260 689.297851562 306.75 689.297851562 340.186523438 c 0
 689.297851562 373.374023438 660.4765625 431.6015625 601.729492188 499.852539062 c 2
 321.775390625 822.798828125 l 1
 298.765625 849.342773438 l 1
 322.116210938 875.587890625 l 1
 443.116210938 1011.58789062 l 1
 473.66796875 1045.92871094 l 1
 503.459960938 1010.92578125 l 1
 949.380859375 487.01953125 l 6
 1142.20546545 260.472588444 1156 260 1200 260 c 6
 1209 260 l 2
 1226 260 1234 178.0859375 1234 137 c 2
 1234 126 l 2
 1234 83.5537109375 1227 0 1209 0 c 2
EndSplineSet
EndChar

StartChar: uniFEAE
Encoding: 65198 65198 185
GlifName: uniF_E_A_E_
Width: 883
VWidth: 2551
GlyphClass: 2
Flags: HW
AnchorPoint: "Anchor-10" 511 993 basechar 0
AnchorPoint: "Anchor-7" 297 -579 basechar 0
LayerCount: 2
Fore
SplineSet
888 0 m 6
 872 0 l 2
 801 0 741.02734375 10.984375 694.499023438 35.478515625 c 1
 664.697265625 -280.490234375 447.059570312 -462.176757812 86.5556640625 -466.99609375 c 2
 14.5556640625 -467.99609375 l 1
 -26 -468.559570312 l 1
 -26 -428 l 1
 -26 -253 l 1
 -26 -213 l 1
 14 -213 l 1
 84 -213 l 2
 326.401367188 -213 442 -103.009765625 442 112 c 2
 442 646 l 1
 442 686 l 1
 482 686 l 1
 657 686 l 1
 697 686 l 1
 697 646 l 1
 697 423 l 2
 697 308.649414062 746 260 872 260 c 2
 888 260 l 6
 905 260 913 178.0859375 913 137 c 6
 913 126 l 6
 913 83.5537109375 906 0 888 0 c 6
EndSplineSet
PairPos2: "'kern' Horizontal Kerning lookup 15-1" uniFEE7 dx=-178 dy=0 dh=-178 dv=0 dx=0 dy=0 dh=0 dv=0
PairPos2: "'kern' Horizontal Kerning lookup 15-2" uni0698 dx=-40 dy=0 dh=-40 dv=0 dx=0 dy=0 dh=0 dv=0
PairPos2: "'kern' Horizontal Kerning lookup 15-2" uni0648 dx=-30 dy=0 dh=-30 dv=0 dx=0 dy=0 dh=0 dv=0
PairPos2: "'kern' Horizontal Kerning lookup 15-2" uni0624 dx=-30 dy=0 dh=-30 dv=0 dx=0 dy=0 dh=0 dv=0
PairPos2: "'kern' Horizontal Kerning lookup 15-2" uni0632 dx=-30 dy=0 dh=-30 dv=0 dx=0 dy=0 dh=0 dv=0
PairPos2: "'kern' Horizontal Kerning lookup 15-2" uni0631 dx=-30 dy=0 dh=-30 dv=0 dx=0 dy=0 dh=0 dv=0
PairPos2: "'kern' Horizontal Kerning lookup 15-2" uniFB90 dx=-180 dy=0 dh=-180 dv=0 dx=0 dy=0 dh=0 dv=0
PairPos2: "'kern' Horizontal Kerning lookup 15-2" uniFB8E dx=-180 dy=0 dh=-180 dv=0 dx=0 dy=0 dh=0 dv=0
PairPos2: "'kern' Horizontal Kerning lookup 15-2" uni06A9 dx=-180 dy=0 dh=-180 dv=0 dx=0 dy=0 dh=0 dv=0
PairPos2: "'kern' Horizontal Kerning lookup 15-2" uniFEEB dx=-178 dy=0 dh=-178 dv=0 dx=0 dy=0 dh=0 dv=0
PairPos2: "'kern' Horizontal Kerning lookup 15-2" uni0647 dx=-178 dy=0 dh=-178 dv=0 dx=0 dy=0 dh=0 dv=0
PairPos2: "'kern' Horizontal Kerning lookup 15-2" uniFEE3 dx=-178 dy=0 dh=-178 dv=0 dx=0 dy=0 dh=0 dv=0
PairPos2: "'kern' Horizontal Kerning lookup 15-2" uni0645 dx=-178 dy=0 dh=-178 dv=0 dx=0 dy=0 dh=0 dv=0
PairPos2: "'kern' Horizontal Kerning lookup 15-2" uniFEFB dx=-143 dy=0 dh=-143 dv=0 dx=0 dy=0 dh=0 dv=0
PairPos2: "'kern' Horizontal Kerning lookup 15-2" uniFEDF dx=-143 dy=0 dh=-143 dv=0 dx=0 dy=0 dh=0 dv=0
PairPos2: "'kern' Horizontal Kerning lookup 15-2" uni0644 dx=-60 dy=0 dh=-60 dv=0 dx=0 dy=0 dh=0 dv=0
PairPos2: "'kern' Horizontal Kerning lookup 15-2" uniFEDB dx=-180 dy=0 dh=-180 dv=0 dx=0 dy=0 dh=0 dv=0
PairPos2: "'kern' Horizontal Kerning lookup 15-2" uni0643 dx=-143 dy=0 dh=-143 dv=0 dx=0 dy=0 dh=0 dv=0
PairPos2: "'kern' Horizontal Kerning lookup 15-2" uniFED7 dx=-178 dy=0 dh=-178 dv=0 dx=0 dy=0 dh=0 dv=0
PairPos2: "'kern' Horizontal Kerning lookup 15-2" uniFED3 dx=-178 dy=0 dh=-178 dv=0 dx=0 dy=0 dh=0 dv=0
PairPos2: "'kern' Horizontal Kerning lookup 15-2" uni0641 dx=-178 dy=0 dh=-178 dv=0 dx=0 dy=0 dh=0 dv=0
PairPos2: "'kern' Horizontal Kerning lookup 15-2" uniFECF dx=-178 dy=0 dh=-178 dv=0 dx=0 dy=0 dh=0 dv=0
PairPos2: "'kern' Horizontal Kerning lookup 15-2" uniFECB dx=-178 dy=0 dh=-178 dv=0 dx=0 dy=0 dh=0 dv=0
PairPos2: "'kern' Horizontal Kerning lookup 15-2" uniFEC7 dx=-178 dy=0 dh=-178 dv=0 dx=0 dy=0 dh=0 dv=0
PairPos2: "'kern' Horizontal Kerning lookup 15-2" uni0638 dx=-178 dy=0 dh=-178 dv=0 dx=0 dy=0 dh=0 dv=0
PairPos2: "'kern' Horizontal Kerning lookup 15-2" uniFEC3 dx=-178 dy=0 dh=-178 dv=0 dx=0 dy=0 dh=0 dv=0
PairPos2: "'kern' Horizontal Kerning lookup 15-2" uni0637 dx=-178 dy=0 dh=-178 dv=0 dx=0 dy=0 dh=0 dv=0
PairPos2: "'kern' Horizontal Kerning lookup 15-2" uniFEBF dx=-178 dy=0 dh=-178 dv=0 dx=0 dy=0 dh=0 dv=0
PairPos2: "'kern' Horizontal Kerning lookup 15-2" uni0636 dx=-178 dy=0 dh=-178 dv=0 dx=0 dy=0 dh=0 dv=0
PairPos2: "'kern' Horizontal Kerning lookup 15-2" uniFEBB dx=-178 dy=0 dh=-178 dv=0 dx=0 dy=0 dh=0 dv=0
PairPos2: "'kern' Horizontal Kerning lookup 15-2" uni0635 dx=-178 dy=0 dh=-178 dv=0 dx=0 dy=0 dh=0 dv=0
PairPos2: "'kern' Horizontal Kerning lookup 15-2" uniFEB7 dx=-178 dy=0 dh=-178 dv=0 dx=0 dy=0 dh=0 dv=0
PairPos2: "'kern' Horizontal Kerning lookup 15-2" uni0634 dx=-178 dy=0 dh=-178 dv=0 dx=0 dy=0 dh=0 dv=0
PairPos2: "'kern' Horizontal Kerning lookup 15-2" uniFEB3 dx=-178 dy=0 dh=-178 dv=0 dx=0 dy=0 dh=0 dv=0
PairPos2: "'kern' Horizontal Kerning lookup 15-2" uni0633 dx=-178 dy=0 dh=-178 dv=0 dx=0 dy=0 dh=0 dv=0
PairPos2: "'kern' Horizontal Kerning lookup 15-2" uni0630 dx=-178 dy=0 dh=-178 dv=0 dx=0 dy=0 dh=0 dv=0
PairPos2: "'kern' Horizontal Kerning lookup 15-2" uni062F dx=-178 dy=0 dh=-178 dv=0 dx=0 dy=0 dh=0 dv=0
PairPos2: "'kern' Horizontal Kerning lookup 15-2" uniFEA7 dx=-178 dy=0 dh=-178 dv=0 dx=0 dy=0 dh=0 dv=0
PairPos2: "'kern' Horizontal Kerning lookup 15-2" uniFEA3 dx=-178 dy=0 dh=-178 dv=0 dx=0 dy=0 dh=0 dv=0
PairPos2: "'kern' Horizontal Kerning lookup 15-2" uniFE9F dx=-178 dy=0 dh=-178 dv=0 dx=0 dy=0 dh=0 dv=0
PairPos2: "'kern' Horizontal Kerning lookup 15-2" uniFE9B dx=-178 dy=0 dh=-178 dv=0 dx=0 dy=0 dh=0 dv=0
PairPos2: "'kern' Horizontal Kerning lookup 15-2" uni062B dx=-178 dy=0 dh=-178 dv=0 dx=0 dy=0 dh=0 dv=0
PairPos2: "'kern' Horizontal Kerning lookup 15-2" uniFE97 dx=-178 dy=0 dh=-178 dv=0 dx=0 dy=0 dh=0 dv=0
PairPos2: "'kern' Horizontal Kerning lookup 15-2" uni062A dx=-178 dy=0 dh=-178 dv=0 dx=0 dy=0 dh=0 dv=0
PairPos2: "'kern' Horizontal Kerning lookup 15-2" uni0629 dx=-178 dy=0 dh=-178 dv=0 dx=0 dy=0 dh=0 dv=0
PairPos2: "'kern' Horizontal Kerning lookup 15-2" uni0628 dx=-178 dy=0 dh=-178 dv=0 dx=0 dy=0 dh=0 dv=0
PairPos2: "'kern' Horizontal Kerning lookup 15-2" uni0627 dx=-163 dy=0 dh=-163 dv=0 dx=0 dy=0 dh=0 dv=0
PairPos2: "'kern' Horizontal Kerning lookup 15-2" uni0623 dx=-163 dy=0 dh=-163 dv=0 dx=0 dy=0 dh=0 dv=0
PairPos2: "'kern' Horizontal Kerning lookup 15-2" uni0622 dx=-163 dy=0 dh=-163 dv=0 dx=0 dy=0 dh=0 dv=0
PairPos2: "'kern' Horizontal Kerning lookup 15-2" uni0621 dx=-178 dy=0 dh=-178 dv=0 dx=0 dy=0 dh=0 dv=0
PairPos2: "'kern' Horizontal Kerning lookup 15-2" uniFB94 dx=-180 dy=0 dh=-180 dv=0 dx=0 dy=0 dh=0 dv=0
PairPos2: "'kern' Horizontal Kerning lookup 15-2" uniFB92 dx=-180 dy=0 dh=-180 dv=0 dx=0 dy=0 dh=0 dv=0
PairPos2: "'kern' Horizontal Kerning lookup 15-2" uni06AF dx=-180 dy=0 dh=-180 dv=0 dx=0 dy=0 dh=0 dv=0
PairPos2: "'kern' Horizontal Kerning lookup 15-2" uni067E dx=-178 dy=0 dh=-178 dv=0 dx=0 dy=0 dh=0 dv=0
PairPos2: "'kern' Horizontal Kerning lookup 15-2" uni0640 dx=-178 dy=0 dh=-178 dv=0 dx=0 dy=0 dh=0 dv=0
PairPos2: "'kern' Horizontal Kerning lookup 15-2" uniFE8B dx=-178 dy=0 dh=-178 dv=0 dx=0 dy=0 dh=0 dv=0
PairPos2: "'kern' Horizontal Kerning lookup 15-2" uniFB7C dx=-120 dy=0 dh=-120 dv=0 dx=0 dy=0 dh=0 dv=0
PairPos2: "'kern' Horizontal Kerning lookup 15-2" uniFE91 dx=-60 dy=0 dh=-60 dv=0 dx=0 dy=0 dh=0 dv=0
PairPos2: "'kern' Horizontal Kerning lookup 15-5" uni06C0 dx=-178 dy=0 dh=-178 dv=0 dx=0 dy=0 dh=0 dv=0
EndChar

StartChar: uniFEB2
Encoding: 65202 65202 189
GlifName: uniF_E_B_2
Width: 2619
VWidth: 2551
GlyphClass: 2
Flags: HW
AnchorPoint: "Anchor-10" 1775 1104 basechar 0
AnchorPoint: "Anchor-7" 688 -628 basechar 0
LayerCount: 2
Fore
SplineSet
2625 0 m 6
 2605 0 l 2
 2473 0 2370.21386719 35.8388671875 2299.01074219 110.084960938 c 1
 2244.28417969 35.3642578125 2169.61230469 0 2063 0 c 0
 1946.62695312 0 1858.359375 38.208984375 1796.52832031 111.546875 c 1
 1730.33007812 33.3447265625 1635.77929688 0 1520.76171875 0 c 0
 1463.96679688 0.67578125 1410.07324219 12.2080078125 1363.36035156 38.91015625 c 1
 1342.28613281 -287.283203125 1122.01269531 -449 744 -449 c 2
 693 -449 l 2
 282.630859375 -449 60 -248.262695312 60 141 c 2
 60 482 l 1
 60 522 l 1
 100 522 l 1
 274 522 l 1
 314 522 l 1
 314 482 l 1
 314 142 l 2
 314 -83.3662109375 430.090820312 -190 693 -190 c 2
 744 -190 l 2
 1011.62695312 -190 1121 -96.7333984375 1121 87 c 2
 1121 671 l 1
 1121 711 l 1
 1161 711 l 1
 1337 711 l 1
 1377 711 l 1
 1377 671 l 1
 1377 437 l 2
 1377 305.55859375 1424.83203125 259.978515625 1527.19921875 259.978515625 c 0
 1621.43652344 259.978515625 1665 302.58984375 1665 413.076171875 c 2
 1666 674.153320312 l 1
 1666.15332031 714 l 1
 1706 714 l 1
 1876 714 l 1
 1915.84570312 714 l 1
 1916 674.154296875 l 1
 1916.99902344 415.232421875 l 2
 1917.87402344 302.353515625 1959.43945312 260.986328125 2059.78125 260.9765625 c 0
 2141.82617188 260.9765625 2170 295.08984375 2170 413 c 2
 2170 674 l 1
 2170 714 l 1
 2210 714 l 1
 2373 714 l 1
 2412.84570312 714 l 1
 2413 674.155273438 l 1
 2413.99902344 416.231445312 l 2
 2414.82617188 308.78125 2464 260 2597 260 c 2
 2625 260 l 6
 2642 260 2650 178.0859375 2650 137 c 6
 2650 126 l 6
 2650 83.5537109375 2643 0 2625 0 c 6
EndSplineSet
EndChar

StartChar: uniFEB3
Encoding: 65203 65203 190
GlifName: uniF_E_B_3
Width: 1640
VWidth: 2551
GlyphClass: 2
Flags: HW
AnchorPoint: "Anchor-10" 925 1120 basechar 0
AnchorPoint: "Anchor-7" 846 -201 basechar 0
LayerCount: 2
Fore
SplineSet
-5 260 m 6
 90 260 l 2
 232 260 287 310.505859375 287 414 c 2
 287 674 l 1
 287 714 l 1
 327 714 l 1
 498 714 l 1
 537.84765625 714 l 1
 538 674.15234375 l 1
 538.999023438 412.233398438 l 2
 539.8671875 302.069335938 581.7421875 259.98828125 685.696289062 259.98828125 c 0
 782.1015625 259.98828125 826 302.194335938 826 413.076171875 c 2
 827 674.153320312 l 1
 827.153320312 714 l 1
 867 714 l 1
 1037 714 l 1
 1076.84570312 714 l 1
 1077 674.154296875 l 1
 1077.99902344 415.232421875 l 2
 1078.87597656 302.197265625 1120.66894531 260.98828125 1219.27539062 260.98828125 c 0
 1289.8125 260.98828125 1325 294.541015625 1325 411 c 2
 1325 706 l 1
 1325 746 l 1
 1365 746 l 1
 1540 746 l 1
 1580 746 l 1
 1580 706 l 1
 1580 403 l 2
 1580 155.76171875 1449.0859375 0 1225 0 c 0
 1107.98828125 0 1020.25195312 37.48046875 957.530273438 111.548828125 c 1
 891.366210938 33.38671875 796.553710938 0 682 0 c 0
 573.65625 0 483.404296875 37.0654296875 416.04296875 115.27734375 c 1
 343.041015625 36.9443359375 237 0 89 0 c 2
 -5 0 l 6
 -23 0 -30 83.5703125 -30 126 c 6
 -30 137 l 6
 -30 178.266601562 -22 260 -5 260 c 6
EndSplineSet
EndChar

StartChar: uniFEB4
Encoding: 65204 65204 191
GlifName: uniF_E_B_4
Width: 1781
VWidth: 2546
GlyphClass: 2
Flags: HW
AnchorPoint: "Anchor-7" 846 -201 basechar 0
AnchorPoint: "Anchor-10" 925 1120 basechar 0
LayerCount: 2
Fore
SplineSet
1787 0 m 6
 1767 0 l 2
 1635 0 1532.21386719 35.8388671875 1461.01074219 110.084960938 c 1
 1406.28417969 35.3642578125 1331.61230469 0 1225 0 c 0
 1107.98828125 0 1020.25292969 37.48046875 957.530273438 111.548828125 c 1
 891.366210938 33.38671875 796.553710938 0 682 0 c 0
 573.65625 0 483.405273438 37.064453125 416.04296875 115.27734375 c 1
 343.041015625 36.9453125 237 0 89 0 c 2
 -5 0 l 2
 -23 0 -30 83.5703125 -30 126 c 2
 -30 137 l 2
 -30 178.266601562 -22 260 -5 260 c 2
 90 260 l 2
 232 260 287 310.505859375 287 414 c 2
 287 674 l 1
 287 714 l 1
 327 714 l 1
 498 714 l 1
 537.84765625 714 l 1
 538 674.15234375 l 1
 538.999023438 412.233398438 l 2
 539.8671875 302.0703125 581.7421875 259.98828125 685.696289062 259.98828125 c 0
 782.102539062 259.98828125 826 302.193359375 826 413.076171875 c 2
 827 674.153320312 l 1
 827.153320312 714 l 1
 867 714 l 1
 1037 714 l 1
 1076.84570312 714 l 1
 1077 674.154296875 l 1
 1077.99902344 415.232421875 l 2
 1078.88378906 301.17578125 1120.69238281 260.9765625 1221.78125 260.9765625 c 0
 1293.03613281 260.9765625 1327 295.572265625 1327 413 c 2
 1327 674 l 1
 1327 714 l 1
 1367 714 l 1
 1535 714 l 1
 1574.84570312 714 l 1
 1575 674.155273438 l 1
 1575.99902344 416.231445312 l 2
 1576.82617188 308.78125 1626 260 1759 260 c 2
 1787 260 l 6
 1804 260 1812 178.0859375 1812 137 c 6
 1812 126 l 6
 1812 83.5537109375 1805 0 1787 0 c 6
EndSplineSet
EndChar

StartChar: uniFEBA
Encoding: 65210 65210 197
GlifName: uniF_E_B_A_
Width: 2561
VWidth: 2551
GlyphClass: 2
Flags: HW
AnchorPoint: "Anchor-10" 1977 1188 basechar 0
AnchorPoint: "Anchor-7" 688 -628 basechar 0
LayerCount: 2
Fore
SplineSet
2566 0 m 6
 2537 0 l 2
 2418 0 2324.03808594 15.27734375 2255.21777344 68.19921875 c 1
 2171.84277344 19.6591796875 2074.10546875 0 1958 0 c 2
 1618 0 l 2
 1509.01757812 0 1424.71582031 13.05078125 1363.65527344 43.82421875 c 1
 1344.87402344 -284.444335938 1124.40039062 -449 744 -449 c 2
 693 -449 l 2
 282.630859375 -449 60 -248.262695312 60 141 c 2
 60 482 l 1
 60 522 l 1
 100 522 l 1
 274 522 l 1
 314 522 l 1
 314 482 l 1
 314 142 l 2
 314 -83.3662109375 430.090820312 -190 693 -190 c 2
 744 -190 l 2
 1011.62695312 -190 1121 -96.7333984375 1121 87 c 2
 1121 671 l 1
 1121 711 l 1
 1161 711 l 1
 1337 711 l 1
 1377 711 l 1
 1377 671 l 1
 1377 457 l 2
 1377 362.124023438 1400.89453125 313.829101562 1423.65527344 295.08984375 c 1
 1584.35058594 645.224609375 1748.3515625 855 2015 855 c 0
 2256.87304688 855 2445 650.26171875 2445 407 c 0
 2445 353.336914062 2436.3984375 304.342773438 2420.50195312 260 c 1
 2566 260 l 6
 2583 260 2591 178.0859375 2591 137 c 6
 2591 126 l 6
 2591 83.5537109375 2584 0 2566 0 c 6
2004 592 m 0
 1906.25585938 592 1795.0703125 494.369140625 1680.02734375 260 c 1
 1978 260 l 2
 2124.80859375 260 2190 299.352539062 2190 387 c 0
 2190 507.244140625 2102.91113281 592 2004 592 c 0
EndSplineSet
EndChar

StartChar: uniFEBB
Encoding: 65211 65211 198
GlifName: uniF_E_B_B_
Width: 1658
VWidth: 2551
GlyphClass: 2
Flags: HW
AnchorPoint: "Anchor-10" 1127 1188 basechar 0
AnchorPoint: "Anchor-7" 674 -210 basechar 0
LayerCount: 2
Fore
SplineSet
-5 260 m 6
 71 260 l 2
 201 260 255 310.981445312 255 426 c 2
 255 673 l 1
 255 713 l 1
 295 713 l 1
 463 713 l 1
 502.840820312 713 l 1
 503 673.159179688 l 1
 504 422.159179688 l 2
 504.370117188 329.276367188 535.171875 295.040039062 572.392578125 285.755859375 c 1
 734.53125 641.607421875 899.946289062 855 1168 855 c 0
 1410.25585938 855 1598 649.754882812 1598 407 c 0
 1598 136.427734375 1388.03613281 0 1111 0 c 2
 771 0 l 2
 593.2578125 0 463.859375 32.91796875 388.3203125 112.493164062 c 1
 317.983398438 36.4716796875 217 0 78 0 c 2
 -5 0 l 6
 -23 0 -30 83.5703125 -30 126 c 6
 -30 137 l 6
 -30 178.266601562 -22 260 -5 260 c 6
1343 387 m 0
 1343 507.6953125 1255.92480469 592 1157 592 c 0
 1060.21191406 592 948.227539062 494.380859375 833.041992188 260 c 1
 1131 260 l 2
 1277.796875 260 1343 299.155273438 1343 387 c 0
EndSplineSet
EndChar

StartChar: uniFEBC
Encoding: 65212 65212 199
GlifName: uniF_E_B_C_
Width: 1713
VWidth: 2551
GlyphClass: 2
Flags: HW
AnchorPoint: "Anchor-10" 1127 1188 basechar 0
AnchorPoint: "Anchor-7" 674 -210 basechar 0
LayerCount: 2
Fore
SplineSet
1719 0 m 2
 1690 0 l 2
 1571 0 1477.03808594 15.27734375 1408.21777344 68.19921875 c 1
 1324.84277344 19.6591796875 1227.10546875 0 1111 0 c 2
 771 0 l 2
 593.307617188 0 463.737304688 33.046875 388.447265625 112.359375 c 1
 318.510742188 36.33203125 217 0 78 0 c 2
 -5 0 l 2
 -23 0 -30 83.5703125 -30 126 c 2
 -30 137 l 2
 -30 178.266601562 -22 260 -5 260 c 2
 71 260 l 2
 201 260 255 310.981445312 255 426 c 2
 255 673 l 1
 255 713 l 1
 295 713 l 1
 463 713 l 1
 502.840820312 713 l 1
 503 673.159179688 l 1
 504 422.080078125 l 2
 504 328.627929688 535.341796875 294.669921875 572.41015625 285.719726562 c 1
 735.006835938 641.579101562 900.212890625 855 1168 855 c 0
 1409.87304688 855 1598 650.26171875 1598 407 c 0
 1598 353.336914062 1589.3984375 304.342773438 1573.50195312 260 c 1
 1719 260 l 2
 1736 260 1744 178.0859375 1744 137 c 2
 1744 126 l 2
 1744 83.5537109375 1737 0 1719 0 c 2
1343 387 m 0
 1343 507.244140625 1255.91113281 592 1157 592 c 0
 1060.21191406 592 948.227539062 494.380859375 833.041992188 260 c 1
 1131 260 l 2
 1277.80859375 260 1343 299.352539062 1343 387 c 0
EndSplineSet
EndChar

StartChar: uniFEC2
Encoding: 65218 65218 205
GlifName: uniF_E_C_2
Width: 1414
VWidth: 2551
GlyphClass: 2
Flags: HW
AnchorPoint: "Anchor-10" 447 1463 basechar 0
AnchorPoint: "Anchor-7" 610 -198 basechar 0
LayerCount: 2
Fore
SplineSet
1419 0 m 6
 1390 0 l 2
 1271 0 1177.03808594 15.27734375 1108.21777344 68.19921875 c 1
 1024.84277344 19.6591796875 927.10546875 0 811 0 c 2
 100 0 l 1
 60 0 l 1
 60 40 l 1
 60 220 l 1
 60 260 l 1
 100 260 l 1
 262.571289062 260 l 1
 284.78515625 310.508789062 307.818359375 353.49609375 329 395.481445312 c 1
 329 1295 l 1
 329 1335 l 1
 369 1335 l 1
 535 1335 l 1
 575 1335 l 1
 575 1295 l 1
 575 735.2265625 l 1
 661.016601562 809.928710938 756.893554688 855 868 855 c 0
 1109.87304688 855 1298 650.26171875 1298 407 c 0
 1298 353.336914062 1289.3984375 304.342773438 1273.50195312 260 c 1
 1419 260 l 6
 1436 260 1444 178.0859375 1444 137 c 6
 1444 126 l 6
 1444 83.5537109375 1437 0 1419 0 c 6
857 592 m 0
 759.255859375 592 648.0703125 494.369140625 533.02734375 260 c 1
 831 260 l 2
 977.80859375 260 1043 299.352539062 1043 387 c 0
 1043 507.244140625 955.911132812 592 857 592 c 0
EndSplineSet
EndChar

StartChar: uniFEC3
Encoding: 65219 65219 206
GlifName: uniF_E_C_3
Width: 1230
VWidth: 2551
GlyphClass: 2
Flags: HW
AnchorPoint: "Anchor-10" 327 1463 basechar 0
AnchorPoint: "Anchor-7" 480 -198 basechar 0
LayerCount: 2
Fore
SplineSet
-6 260 m 2
 134.571289062 260 l 5
 156.78515625 310.508789062 179.818359375 353.49609375 201 395.481445312 c 5
 201 1295 l 5
 201 1335 l 5
 241 1335 l 5
 407 1335 l 5
 447 1335 l 5
 447 1295 l 5
 447 735.125976562 l 5
 532.145507812 809.099609375 629.543945312 855 740 855 c 4
 981.873046875 855 1170 650.26171875 1170 407 c 4
 1170 136.251953125 960 0 683 0 c 6
 -6 0 l 2
 -24 0 -31 83.5703125 -31 126 c 2
 -31 137 l 2
 -31 178.266601562 -23 260 -6 260 c 2
915 387 m 4
 915 507.244140625 827.911132812 592 729 592 c 4
 632.211914062 592 520.227539062 494.380859375 405.041992188 260 c 5
 703 260 l 6
 849.80859375 260 915 299.352539062 915 387 c 4
EndSplineSet
EndChar

StartChar: uniFEC4
Encoding: 65220 65220 207
GlifName: uniF_E_C_4
Width: 1286
VWidth: 2551
GlyphClass: 2
Flags: HW
AnchorPoint: "Anchor-10" 327 1463 basechar 0
AnchorPoint: "Anchor-7" 480 -198 basechar 0
LayerCount: 2
Fore
SplineSet
1291 0 m 6
 1262 0 l 6
 1143 0 1049.03808594 15.27734375 980.217773438 68.19921875 c 5
 896.842773438 19.6591796875 799 0 683 0 c 6
 -5 0 l 2
 -23 0 -30 83.5703125 -30 126 c 2
 -30 137 l 2
 -30 178.266601562 -22 260 -5 260 c 2
 134.571289062 260 l 5
 156.78515625 310.508789062 179.818359375 353.49609375 201 395.481445312 c 5
 201 1295 l 5
 201 1335 l 5
 241 1335 l 5
 407 1335 l 5
 447 1335 l 5
 447 1295 l 5
 447 735.2265625 l 5
 533.016601562 809.928710938 628.893554688 855 740 855 c 4
 981.873046875 855 1170 650.26171875 1170 407 c 4
 1170 353.336914062 1161.3984375 304.342773438 1145.50195312 260 c 5
 1291 260 l 6
 1308 260 1316 178.0859375 1316 137 c 6
 1316 126 l 6
 1316 83.5537109375 1309 0 1291 0 c 6
729 592 m 4
 631.255859375 592 520.0703125 494.369140625 405.02734375 260 c 5
 703 260 l 6
 849.80859375 260 915 299.352539062 915 387 c 4
 915 507.244140625 827.911132812 592 729 592 c 4
EndSplineSet
EndChar

StartChar: uniFECA
Encoding: 65226 65226 213
GlifName: uniF_E_C_A_
Width: 1225
VWidth: 2551
GlyphClass: 2
Flags: HW
AnchorPoint: "Anchor-7" 713 -858 basechar 0
AnchorPoint: "Anchor-10" 654 1152 basechar 0
LayerCount: 2
Fore
SplineSet
1230 0 m 6
 1126 0 l 2
 938 0 788.559570312 50.12890625 635.568359375 144.32421875 c 1
 401.283203125 27.9775390625 312 -96.783203125 312 -178 c 0
 312 -364.201171875 438.497070312 -439 792 -439 c 2
 1094 -439 l 1
 1134 -439 l 1
 1134 -479 l 1
 1134 -655 l 1
 1134 -695 l 1
 1094 -695 l 1
 780 -695 l 2
 360.811523438 -695 60 -552.576171875 60 -185 c 0
 60 12.7783203125 214.368164062 180.2734375 408.063476562 301.8359375 c 1
 326.805664062 355.202148438 157 465.450195312 157 585 c 0
 157 807.369140625 402.223632812 874 662 874 c 0
 921.866210938 874 1166 807.280273438 1166 585 c 0
 1166 466.302734375 985.84375 349.681640625 896.859375 291.05078125 c 1
 963.0703125 269.727539062 1026 260 1137 260 c 2
 1230 260 l 6
 1247 260 1255 178.0859375 1255 137 c 6
 1255 126 l 6
 1255 83.5537109375 1248 0 1230 0 c 6
661 415.192382812 m 1
 714.104492188 446.166015625 856.614257812 543.078125 899.892578125 585.34375 c 1
 869.837890625 604.801757812 776.666992188 624 660 624 c 0
 545.311523438 624 452.134765625 604.513671875 422.153320312 585.298828125 c 1
 466.776367188 541.720703125 609.830078125 445.037109375 661 415.192382812 c 1
EndSplineSet
EndChar

StartChar: uniFECB
Encoding: 65227 65227 214
GlifName: uniF_E_C_B_
Width: 1020
VWidth: 2551
GlyphClass: 2
Flags: HW
AnchorPoint: "Anchor-10" 527 1292 basechar 0
AnchorPoint: "Anchor-7" 461 -206 basechar 0
LayerCount: 2
Fore
SplineSet
-5 260 m 6
 210.33203125 260 l 1
 158.376953125 325.609375 128 401.524414062 128 491 c 0
 128 741.383789062 311.448242188 926 564 926 c 0
 704.96484375 926 823.814453125 870.060546875 911.958007812 762.329101562 c 2
 929.059570312 741.427734375 l 1
 916.065429688 717.75390625 l 1
 843.065429688 584.75390625 l 1
 818.006835938 539.099609375 l 1
 780.360351562 575.084960938 l 2
 718.924804688 633.810546875 650.879882812 662 569 662 c 0
 466.1484375 662 383 595.112304688 383 492 c 0
 383 442.599609375 405.954101562 397.5 463.129882812 352.122070312 c 0
 517.907226562 307.126953125 556.318359375 291 574 291 c 0
 590.209960938 291 635.438476562 298.306640625 698.825195312 312.93359375 c 2
 910.64453125 363.890625 l 1
 960 375.763671875 l 1
 960 325 l 1
 960 144 l 1
 960 114.21484375 l 1
 931.463867188 105.677734375 l 2
 694.75 34.8662109375 486 0 305 0 c 2
 -5 0 l 6
 -23 0 -30 83.5703125 -30 126 c 6
 -30 137 l 6
 -30 178.266601562 -22 260 -5 260 c 6
EndSplineSet
EndChar

StartChar: uniFEDA
Encoding: 65242 65242 229
GlifName: uniF_E_D_A_
Width: 1969
VWidth: 2551
GlyphClass: 2
Flags: HW
AnchorPoint: "Anchor-10" 948.836 1315.23 basechar 0
AnchorPoint: "Anchor-7" 850 -193 basechar 0
LayerCount: 2
Fore
SplineSet
1975 -1 m 2
 1943 -1 l 2
 1832 -1 1738.61621094 40.388671875 1672.96777344 120.534179688 c 1
 1601.27246094 37.041015625 1489.42089844 0 1347 0 c 2
 535 0 l 2
 227.497070312 0 62 169.775390625 62 482 c 2
 62 693 l 1
 62 733 l 1
 102 733 l 1
 277 733 l 1
 317 733 l 1
 317 693 l 1
 317 483 l 2
 317 326.571289062 383.106445312 260 538 260 c 2
 1352 260 l 2
 1480.06835938 260 1539 323 1539 488 c 2
 1539 1293 l 1
 1539 1333 l 1
 1579 1333 l 1
 1746 1333 l 1
 1786 1333 l 1
 1786 1293 l 1
 1786 485 l 2
 1786 327 1850.10546875 263.791992188 1949.62792969 260 c 2
 1975 260 l 2
 1991 260 2000 177.0859375 2000 136 c 2
 2000 125 l 2
 2000 82.5537109375 1993 -1 1975 -1 c 2
860.8359375 699.23046875 m 0
 962.624023438 699.23046875 996.8359375 717.129882812 996.8359375 738.23046875 c 0
 996.8359375 738.891601562 996.776367188 739.301757812 996.760742188 739.401367188 c 0
 992.440429688 744.82421875 731.7265625 762.037109375 731.7265625 968.451171875 c 0
 731.7265625 1120.27050781 856.122070312 1208.58300781 1039.765625 1208.58300781 c 0
 1069.671875 1208.58300781 1100.62011719 1206.31152344 1131.58398438 1201.81542969 c 2
 1165.8359375 1196.84179688 l 1
 1165.8359375 1162.23046875 l 1
 1165.8359375 1056.23046875 l 1
 1165.8359375 1011.88671875 l 1
 1121.7265625 1016.44238281 l 2
 1099.24609375 1018.76367188 1075.41503906 1020.28027344 1052.36425781 1020.28027344 c 0
 961.361328125 1020.28027344 924.8359375 998.213867188 924.8359375 969.23046875 c 0
 924.8359375 907.591796875 1186.8359375 980.084960938 1186.8359375 757.23046875 c 0
 1186.8359375 556.956054688 1005.83105469 504 846 504 c 0
 798.7734375 504 744.666992188 510.848632812 697.178710938 517.6328125 c 2
 662.8359375 522.5390625 l 1
 662.8359375 557.23046875 l 1
 662.8359375 671.23046875 l 1
 662.8359375 715.745117188 l 1
 707.096679688 711.002929688 l 2
 758.223632812 705.525390625 811.728515625 699.23046875 860.8359375 699.23046875 c 0
EndSplineSet
EndChar

StartChar: uniFEDB
Encoding: 65243 65243 230
GlifName: uniF_E_D_B_
Width: 938
VWidth: 2551
GlyphClass: 2
Flags: HW
AnchorPoint: "Anchor-10" 276 1428 basechar 0
AnchorPoint: "Anchor-7" 349 -181 basechar 0
LayerCount: 2
Fore
SplineSet
-5 260 m 6
 343 260 l 2
 509 260 553 302.598632812 553 354 c 0
 553 368.759765625 525.682617188 425.90234375 450.840820312 510.723632812 c 2
 136.676757812 875.9140625 l 2
 100.734375 917.693359375 71 970.486328125 71 1038.25 c 0
 72.208984375 1134.93164062 126.857147896 1204.37173376 217.609375 1234.03222656 c 2
 854.490234375 1442.18359375 l 1
 854.490234375 1387.0234375 l 1
 854.490234375 1208.0234375 l 1
 854.490234375 1179 l 1
 353.549804688 1015.61914062 l 1
 622.286132812 704.12890625 l 2
 737.647460938 570.415039062 799.021484375 466.85546875 799.021484375 353.68359375 c 0
 799.021484375 123.926757812 630 0 341 0 c 2
 -5 0 l 6
 -23 0 -30 83.5703125 -30 126 c 6
 -30 137 l 6
 -30 178.266601562 -22 260 -5 260 c 6
EndSplineSet
EndChar

StartChar: uniFEDC
Encoding: 65244 65244 231
GlifName: uniF_E_D_C_
Width: 1106
VWidth: 2551
GlyphClass: 2
Flags: HW
AnchorPoint: "Anchor-7" 349 -181 basechar 0
AnchorPoint: "Anchor-10" 276 1428 basechar 0
LayerCount: 2
Fore
SplineSet
1111 0 m 6
 1096 0 l 2
 964 0 847.928710938 59.376953125 752.915039062 168.213867188 c 1
 681.487304688 50.787109375 539 0 341 0 c 2
 -6 0 l 2
 -24 0 -31 83.5703125 -31 126 c 2
 -31 137 l 2
 -31 178.266601562 -23 260 -6 260 c 2
 343 260 l 2
 509 260 553 302.598632812 553 354 c 0
 553 368.759765625 525.682617188 425.90234375 450.840820312 510.723632812 c 2
 136.676757812 875.913085938 l 2
 99.455078125 919.1796875 71 970.952148438 71 1038.25 c 0
 72.208984375 1134.93164062 127 1204 217.609375 1234.03222656 c 2
 854.490234375 1442.18359375 l 1
 854.490234375 1387.0234375 l 1
 854.490234375 1208.0234375 l 1
 854.490234375 1179 l 1
 353.549804688 1015.61914062 l 1
 885.25 401.170898438 l 2
 972 301 1042 260 1087.32128906 260 c 2
 1111 260 l 6
 1128 260 1136 178.0859375 1136 137 c 6
 1136 126 l 6
 1136 83.5537109375 1129 0 1111 0 c 6
EndSplineSet
EndChar

StartChar: uniFEDE
Encoding: 65246 65246 233
GlifName: uniF_E_D_E_
Width: 1387
VWidth: 2551
GlyphClass: 2
Flags: HW
AnchorPoint: "Anchor-10" 599 1034.1 basechar 0
AnchorPoint: "Anchor-7" 659 -604 basechar 0
LayerCount: 2
Fore
SplineSet
1391 0 m 6
 1361 0 l 2
 1307 0 1263.45996094 9.6240234375 1227.140625 26.7451171875 c 1
 1202.296875 -273.46484375 1014.29101562 -447 687 -447 c 2
 641 -447 l 2
 260.821289062 -447 60 -243.408203125 60 141 c 2
 60 482 l 1
 60 522 l 1
 100 522 l 1
 274 522 l 1
 314 522 l 1
 314 482 l 1
 314 142 l 2
 314 -84.205078125 415.924804688 -186 641 -186 c 2
 694 -186 l 2
 894.297851562 -186 985 -92 985 126 c 2
 985 1293 l 1
 985 1333 l 1
 1025 1333 l 1
 1191 1333 l 1
 1231.04199219 1333 l 1
 1231 1292.95800781 l 1
 1230 421.978515625 l 2
 1230 297 1272 260 1354 260 c 2
 1391 260 l 6
 1408 260 1416 178.0859375 1416 137 c 6
 1416 126 l 6
 1416 83.5537109375 1409 0 1391 0 c 6
EndSplineSet
EndChar

StartChar: uniFEDF
Encoding: 65247 65247 234
GlifName: uniF_E_D_F_
Width: 621
VWidth: 2551
GlyphClass: 2
Flags: HW
AnchorPoint: "Anchor-10" 382 1462 basechar 0
AnchorPoint: "Anchor-7" 229 -192 basechar 0
LayerCount: 2
Fore
SplineSet
-5 260 m 6
 117 260 l 2
 228 260 271 303 271 411 c 2
 271 1294 l 1
 271 1334 l 1
 311 1334 l 1
 478 1334 l 1
 518 1334 l 1
 518 1294 l 1
 518 412 l 2
 518 149 377 0 116 0 c 2
 -5 0 l 6
 -23 0 -30 83.5703125 -30 126 c 6
 -30 137 l 6
 -30 178.266601562 -22 260 -5 260 c 6
EndSplineSet
EndChar

StartChar: uniFEE0
Encoding: 65248 65248 235
GlifName: uniF_E_E_0
Width: 679
VWidth: 2551
GlyphClass: 2
Flags: HW
AnchorPoint: "Anchor-10" 387 1461 basechar 0
AnchorPoint: "Anchor-7" 279 -185 basechar 0
LayerCount: 2
Fore
SplineSet
684 0 m 6
 659 0 l 2
 543 0 456.15625 40.6396484375 391.037109375 109.106445312 c 1
 314.276367188 31.3203125 210 0 110 0 c 2
 -6 0 l 2
 -24 0 -31 83.5703125 -31 126 c 2
 -31 137 l 2
 -31 178.266601562 -23 260 -6 260 c 2
 108 260 l 2
 227 260 271 303 271 407 c 2
 271 1294 l 1
 271 1334 l 1
 311 1334 l 1
 477 1334 l 1
 517 1334 l 1
 517 1294 l 1
 517 407 l 2
 517 300 547 260 669 260 c 2
 684 260 l 6
 701 260 709 178.0859375 709 137 c 6
 709 126 l 6
 709 83.5537109375 702 0 684 0 c 6
EndSplineSet
EndChar

StartChar: uniFEE2
Encoding: 65250 65250 237
GlifName: uniF_E_E_2
Width: 1387
VWidth: 2551
GlyphClass: 2
Flags: HW
AnchorPoint: "Anchor-7" 772 -238 basechar 0
AnchorPoint: "Anchor-10" 722 1176 basechar 0
LayerCount: 2
Fore
SplineSet
1392 0 m 6
 1357 0 l 2
 1262 0 1190.05175781 25.8896484375 1132.98632812 71.580078125 c 1
 1062.34472656 4.62890625 965.276367188 -20 866 -20 c 0
 605.901367188 -20 468 131.530273438 468 406 c 2
 468 550.47265625 l 1
 357.060546875 529.35546875 310 406.611328125 310 199 c 2
 310 -456 l 1
 310 -496 l 1
 270 -496 l 1
 100 -496 l 1
 60 -496 l 1
 60 -456 l 1
 60 200 l 2
 60 600.620117188 231.265625 821 580 821 c 2
 855 821 l 2
 1104.98144531 821 1245 691.684570312 1245 451 c 2
 1245 407 l 2
 1245 293.286132812 1279 260 1353 260 c 2
 1392 260 l 6
 1409 260 1417 178.0859375 1417 137 c 6
 1417 126 l 6
 1417 83.5537109375 1410 0 1392 0 c 6
840 569 m 2
 721 569 l 1
 721 408 l 2
 721 267.284179688 768.397460938 219 866 219 c 0
 948.34375 219 992 263.842773438 992 408 c 2
 992 450 l 2
 992 531.344726562 955.029296875 569 840 569 c 2
EndSplineSet
EndChar

StartChar: uniFEE3
Encoding: 65251 65251 238
GlifName: uniF_E_E_3
Width: 1000
VWidth: 2551
GlyphClass: 2
Flags: HW
AnchorPoint: "Anchor-10" 546 1118 basechar 0
AnchorPoint: "Anchor-7" 528 -206 basechar 0
LayerCount: 2
Fore
SplineSet
-6 260 m 6
 95 260 l 2
 182 260 189.553710938 279.129882812 191.084960938 302.603515625 c 0
 194.012695312 347.494140625 194 374.880859375 194 415 c 0
 194 691.983398438 329.901367188 841 563 841 c 0
 811.567382812 841 940 692.483398438 940 413 c 0
 940 147.180664062 806.72265625 -14 563 -14 c 0
 453.670898438 -14 376.92578125 13.9560546875 313.21484375 67.5234375 c 1
 257.456054688 19.5390625 185 0 97 0 c 2
 -6 0 l 6
 -24 0 -31 83.5703125 -31 126 c 6
 -31 137 l 6
 -31 178.266601562 -23 260 -6 260 c 6
565 240 m 0
 644.494140625 240 689 283.58984375 689 417 c 0
 689 543.2265625 649.359375 583 564 583 c 0
 480.930664062 583 441 543.455078125 441 417 c 0
 441 283.58984375 485.506835938 240 565 240 c 0
EndSplineSet
EndChar

StartChar: uniFEE4
Encoding: 65252 65252 239
GlifName: uniF_E_E_4
Width: 1061
VWidth: 2551
GlyphClass: 2
Flags: HW
AnchorPoint: "Anchor-7" 528 -206 basechar 0
AnchorPoint: "Anchor-10" 546 1126 basechar 0
LayerCount: 2
Fore
SplineSet
1066 0 m 2
 1034 0 l 2
 955 0 873.869140625 22.2109375 815.482421875 68.9580078125 c 1
 750.334960938 12.578125 663.392578125 -14 563 -14 c 0
 453.670898438 -14 376.92578125 13.9560546875 313.21484375 67.5234375 c 1
 257.456054688 19.5390625 185 0 97 0 c 2
 -5 0 l 2
 -23 0 -30 83.5703125 -30 126 c 2
 -30 137 l 2
 -30 178.266601562 -22 260 -5 260 c 2
 95 260 l 2
 182 260 189.33203125 278.9609375 191.096679688 302.779296875 c 0
 193.997070312 347.251953125 194 375.010742188 194 415 c 0
 194 691.983398438 329.901367188 841 563 841 c 0
 811.567382812 841 940 692.483398438 940 413 c 0
 940 364.2890625 928.987304688 298.926757812 928.987304688 290.728515625 c 0
 928.987304688 283.286132812 943 260 1032 260 c 2
 1066 260 l 2
 1083 260 1091 178.0859375 1091 137 c 2
 1091 126 l 2
 1091 83.5537109375 1084 0 1066 0 c 2
565 240 m 0
 644.494140625 240 689 283.58984375 689 417 c 0
 689 543.2265625 649.359375 583 564 583 c 0
 480.930664062 583 441 543.455078125 441 417 c 0
 441 283.58984375 485.506835938 240 565 240 c 0
EndSplineSet
EndChar

StartChar: uniFEEA
Encoding: 65258 65258 245
GlifName: uniF_E_E_A_
Width: 1060
VWidth: 2551
GlyphClass: 2
Flags: HW
AnchorPoint: "Anchor-10" 651 1200 basechar 0
AnchorPoint: "Anchor-7" 595 -182 basechar 0
LayerCount: 2
Fore
SplineSet
1019 0 m 6
 862 0 731.592773438 61.310546875 666.616210938 187 c 1
 513 187 l 2
 202.974609375 187 60 319.154296875 60 497 c 0
 60 713.922851562 233.784179688 835.090820312 537.22265625 891.065429688 c 1
 564.721679688 895.448242188 l 1
 561.282226562 924.2578125 l 1
 556.716796875 962.491210938 l 1
 594.749023438 968.508789062 l 1
 752.749023438 993.508789062 l 1
 793.821289062 1000.00683594 l 1
 798.721679688 958.713867188 l 1
 866.587890625 386.837890625 l 1
 885.750976562 281.501953125 928 260 1030 260 c 6
 1065 260 l 6
 1082 260 1090 178.0859375 1090 137 c 6
 1090 126 l 6
 1090 83.5537109375 1083 0 1065 0 c 6
 1019 0 l 6
618.806640625 440 m 1
 594.274414062 640.463867188 l 1
 576.819335938 637.897460938 l 2
 393.481445312 610.9375 304 555.047851562 304 510 c 0
 304 470.791015625 341.291992188 440 498 440 c 2
 618.806640625 440 l 1
EndSplineSet
EndChar

StartChar: uniFEEB
Encoding: 65259 65259 246
GlifName: uniF_E_E_B_
Width: 1309
VWidth: 2551
GlyphClass: 2
Flags: HW
AnchorPoint: "Anchor-10" 640 1232 basechar 0
AnchorPoint: "Anchor-7" 559 -241 basechar 0
LayerCount: 2
Fore
SplineSet
-5 260 m 2
 197.49609375 260 l 1
 153.649414062 321.794921875 136 392.8984375 136 471 c 0
 136 702.208984375 302.671875 871 510 871 c 0
 564.290039062 871 609.163085938 862.354492188 649.838867188 846.221679688 c 1
 718.956054688 947.541015625 l 1
 743.358398438 983.313476562 l 1
 777.0859375 956.155273438 l 2
 1086.32910156 707.155273438 1249 494.859375 1249 300 c 0
 1249 100.4296875 1108.47070312 -56 916 -56 c 0
 770.013671875 -56 628.618164062 -19.50390625 467.587890625 52.6337890625 c 1
 338.2890625 18.1484375 218 0 90 0 c 2
 -5 0 l 2
 -23 0 -30 83.5703125 -30 126 c 2
 -30 137 l 2
 -30 178.266601562 -22 260 -5 260 c 2
489.0390625 309.90625 m 1
 583.911132812 351.467773438 658.830078125 434.318359375 658.830078125 509.6171875 c 4
 658.830078125 578.142578125 604.318359375 639 539 639 c 0
 445.346679688 639 378 568.291015625 378 469 c 0
 378 410.022460938 423.767578125 337.068359375 489.0390625 309.90625 c 1
855.185546875 534.609375 m 5
 856.075195312 524.462890625 856.501953125 514.801757812 856.501953125 505.202148438 c 4
 856.501953125 378.21875 779.626953125 282.482421875 716.091796875 225.080078125 c 5
 783.256835938 208.607421875 867.481445312 190 908 190 c 0
 966.953125 190 1011 250.8359375 1011 295 c 0
 1011 344.040039062 948.461914062 432.366210938 855.185546875 534.609375 c 5
EndSplineSet
EndChar

StartChar: uniFEEC
Encoding: 65260 65260 247
GlifName: uniF_E_E_C_
Width: 991
VWidth: 2551
GlyphClass: 2
Flags: HW
AnchorPoint: "Anchor-7" 576 -597 basechar 0
AnchorPoint: "Anchor-10" 558 1118 basechar 0
LayerCount: 2
Fore
SplineSet
997 0 m 6
 846.020507812 0 l 1
 873.271484375 -56.017578125 887 -113.98828125 887 -174 c 0
 887 -342.313476562 777.39453125 -487 594 -487 c 0
 322.853515625 -487 195.642578125 -197.34765625 180.540039062 0 c 1
 -5 0 l 2
 -23 0 -30 83.5703125 -30 126 c 2
 -30 137 l 2
 -30 178.266601562 -22 260 -5 260 c 2
 182.02734375 260 l 1
 207.15234375 536.067382812 287.5078125 852 574 852 c 0
 798.921875 852 889 638.424804688 889 473 c 0
 889 402.670898438 872.885742188 324.75 844.78125 260 c 1
 997 260 l 6
 1014 260 1022 178.0859375 1022 137 c 6
 1022 126 l 6
 1022 83.5537109375 1015 0 997 0 c 6
653 -155 m 0
 653 -43.34375 602.918945312 0 482 0 c 2
 419.5234375 0 l 1
 434.418945312 -121.791992188 505.9765625 -239 590 -239 c 0
 632.328125 -239 653 -218.661132812 653 -155 c 0
652 447 m 0
 652 545.075195312 613.9609375 601 566 601 c 0
 497.169921875 601 444.228515625 437.508789062 421.754882812 260.360351562 c 1
 497.692382812 260.999023438 l 2
 604.329101562 261.819335938 652 312.090820312 652 447 c 0
EndSplineSet
EndChar

StartChar: uniFEEE
Encoding: 65262 65262 249
GlifName: uniF_E_E_E_
Width: 916
VWidth: 2551
GlyphClass: 2
Flags: HW
AnchorPoint: "Anchor-7" 394 -579 basechar 0
AnchorPoint: "Anchor-10" 444 1094 basechar 0
LayerCount: 2
Fore
SplineSet
921 0 m 6
 818.763671875 0 l 1
 800.430664062 -290.955078125 578.015625 -467 202 -467 c 2
 128 -467 l 1
 88 -467 l 1
 88 -427 l 1
 88 -251 l 1
 88 -211 l 1
 128 -211 l 1
 196 -211 l 2
 437.1015625 -211 549.35546875 -130.138671875 567.368164062 0 c 1
 448 0 l 2
 197.983398438 0 59.9931640625 133.400390625 59.9931640625 379.083007812 c 0
 59.9931640625 615.541015625 189.705078125 805 447 805 c 0
 683.356445312 805 820 635.509765625 820 388 c 2
 820 260 l 1
 921 260 l 6
 938 260 946 178.0859375 946 137 c 6
 946 126 l 6
 946 83.5537109375 939 0 921 0 c 6
307 383 m 0
 307 296.868164062 342.884765625 260 447 260 c 2
 571 260 l 1
 571 389 l 2
 571 511.123046875 520.70703125 553 443 553 c 0
 352.130859375 553 307 500.129882812 307 383 c 0
EndSplineSet
EndChar

StartChar: uniFEFB
Encoding: 65275 65275 262
GlifName: uniF_E_F_B_
Width: 1145
VWidth: 2551
GlyphClass: 3
Flags: HW
AnchorPoint: "Anchor-9" 248 1443 baselig 1
AnchorPoint: "Anchor-9" 910 1463 baselig 0
AnchorPoint: "Anchor-6" 848 -168 baselig 0
AnchorPoint: "Anchor-6" 243 -175 baselig 1
LayerCount: 2
Fore
SplineSet
159 1285 m 1
 325 1285 l 1
 365 1285 l 1
 365 1245 l 1
 365 361 l 5
 365 321 l 5
 325 321 l 5
 159 321 l 5
 119 321 l 5
 119 361 l 5
 119 1245 l 1
 119 1285 l 1
 159 1285 l 1
1042 432 m 2
 1042 153 893.641601562 0 620 0 c 2
 158 0 l 1
 118 0 l 1
 118 40 l 1
 118 220 l 1
 118 260 l 1
 158 260 l 1
 627 260 l 2
 743.02734375 260 795 313 795 450 c 2
 795 1294 l 1
 795 1334 l 1
 835 1334 l 1
 1002 1334 l 1
 1042 1334 l 1
 1042 1294 l 1
 1042 432 l 2
EndSplineSet
PairPos2: "'kern' Horizontal Kerning lookup 15-6" uni063A dx=-60 dy=0 dh=-60 dv=0 dx=0 dy=0 dh=0 dv=0
PairPos2: "'kern' Horizontal Kerning lookup 15-6" uni0639 dx=-60 dy=0 dh=-60 dv=0 dx=0 dy=0 dh=0 dv=0
LCarets2: 1 0
Ligature2: "'rlig' Required Ligatures in Arabic lookup 16 subtable" uniFEDF uniFE8E
EndChar

StartChar: uniFEFC
Encoding: 65276 65276 263
GlifName: uniF_E_F_C_
Width: 1203
VWidth: 2551
GlyphClass: 3
Flags: HW
AnchorPoint: "Anchor-6" 848 -168 baselig 0
AnchorPoint: "Anchor-9" 910 1463 baselig 0
AnchorPoint: "Anchor-6" 243 -175 baselig 1
AnchorPoint: "Anchor-9" 248 1443 baselig 1
LayerCount: 2
Fore
SplineSet
1208 0 m 6
 1183 0 l 2
 1059 0 982.161132812 43.70703125 914.997070312 119.708984375 c 1
 839.81640625 40.5703125 745.262695312 0 637 0 c 2
 158 0 l 1
 118 0 l 1
 118 40 l 1
 118 220 l 1
 118 260 l 1
 158 260 l 1
 620 260 l 2
 735.72265625 260 795 324 795 504 c 2
 795 1295 l 1
 795 1335 l 1
 835 1335 l 1
 1001 1335 l 1
 1041 1335 l 1
 1041 1295 l 1
 1041 503 l 2
 1041 315 1068 260 1185 260 c 2
 1208 260 l 6
 1225 260 1233 178.0859375 1233 137 c 6
 1233 126 l 6
 1233 83.5537109375 1226 0 1208 0 c 6
159 1285 m 1
 325 1285 l 1
 365 1285 l 1
 365 1245 l 1
 365 361 l 1
 365 321 l 1
 325 321 l 1
 159 321 l 1
 119 321 l 1
 119 361 l 1
 119 1245 l 1
 119 1285 l 1
 159 1285 l 1
EndSplineSet
PairPos2: "'kern' Horizontal Kerning lookup 15-6" uni063A dx=-60 dy=0 dh=-60 dv=0 dx=0 dy=0 dh=0 dv=0
PairPos2: "'kern' Horizontal Kerning lookup 15-6" uni0639 dx=-60 dy=0 dh=-60 dv=0 dx=0 dy=0 dh=0 dv=0
LCarets2: 1 0
Ligature2: "'rlig' Required Ligatures in Arabic lookup 16 subtable" uniFEE0 uniFE8E
EndChar

StartChar: arabic_dot
Encoding: 65536 -1 264
GlifName: arabic_dot
Width: 204
VWidth: 2629
GlyphClass: 2
Flags: HW
LayerCount: 2
Fore
SplineSet
-70.4558441227 89 m 5
 102 261.455844123 l 5
 274.455844123 89 l 5
 102 -83.4558441227 l 5
 -70.4558441227 89 l 5
EndSplineSet
EndChar

StartChar: arabic_2dots
Encoding: 65537 -1 265
GlifName: arabic_2dots
Width: 527
VWidth: 2629
GlyphClass: 2
Flags: HW
LayerCount: 2
Fore
SplineSet
275.6328125 89 m 1
 443.956054688 258.5 l 1
 613.456054688 89 l 1
 609.213224759 84.7574783657 604.970323924 80.5150276389 600.727539062 76.2724609375 c 0
 548.470509836 24.0148417267 496.212281114 -28.2415779889 443.956054688 -80.5 c 1
 275.6328125 89 l 1
-86.4560546875 89 m 5
 83.0439453125 258.5 l 5
 251.3671875 89 l 5
 83.0439453125 -80.5 l 5
 -86.4560546875 89 l 5
EndSplineSet
EndChar

StartChar: arabic_3dots
Encoding: 65538 -1 266
GlifName: arabic_3dots
Width: 527
VWidth: 2629
GlyphClass: 2
Flags: HW
LayerCount: 2
Fore
SplineSet
103.247766154 344.586428785 m 1
 264.036455634 504.209427552 l 1
 423.659622863 344.586260321 l 1
 264.036624098 183.797570843 l 1
 103.247766154 344.586428785 l 1
284.748046875 98.4130859375 m 1
 445.490234375 259.15625 l 1
 606.232421875 98.4130859375 l 1
 445.490234375 -61.1630859375 l 1
 284.748046875 98.4130859375 l 1
-79.232421875 98.4130859375 m 1
 81.509765625 259.15625 l 1
 242.251953125 98.4130859375 l 1
 81.509765625 -61.1630859375 l 1
 -79.232421875 98.4130859375 l 1
EndSplineSet
EndChar

StartChar: arabic_3dots_a
Encoding: 65539 -1 267
GlifName: arabic_3dots_a
Width: 527
VWidth: 2629
GlyphClass: 2
Flags: HW
LayerCount: 2
Fore
SplineSet
103.247766154 -141.586428785 m 1
 264.036624098 19.202429158 l 1
 423.659622863 -141.586260321 l 1
 264.036455634 -301.209427552 l 1
 103.247766154 -141.586428785 l 1
284.748046875 104.586914062 m 1
 445.490234375 264.163085938 l 1
 606.232421875 104.586914062 l 1
 445.490234375 -56.15625 l 1
 284.748046875 104.586914062 l 1
-79.232421875 104.586914062 m 1
 81.509765625 264.163085938 l 1
 242.251953125 104.586914062 l 1
 81.509765625 -56.15625 l 1
 -79.232421875 104.586914062 l 1
EndSplineSet
EndChar

StartChar: uni066E.fina
Encoding: 65540 -1 268
GlifName: uni066E_.fina
Width: 2016
VWidth: 2551
GlyphClass: 2
Flags: HW
AnchorPoint: "Anchor-10" 680 1277 basechar 0
AnchorPoint: "Anchor-7" 680 -178 basechar 0
LayerCount: 2
Fore
SplineSet
2022 0 m 2
 2001 0 l 2
 1869 0 1776.57617188 35.9267578125 1711.25585938 111.228515625 c 1
 1638.21972656 34.9482421875 1535.23828125 0 1357 0 c 2
 532 0 l 2
 224.498046875 0 60 168.883789062 60 482 c 2
 60 683 l 1
 60 723 l 1
 100 723 l 1
 275 723 l 1
 315 723 l 1
 315 683 l 1
 315 483 l 2
 315 326.5 381.213867188 260 535 260 c 2
 1359 260 l 2
 1535.02929688 260 1582 299.959960938 1582 415 c 2
 1582 673 l 1
 1582 713 l 1
 1622 713 l 1
 1793 713 l 1
 1833 713 l 1
 1833 673 l 1
 1833 415 l 2
 1833 303.000976562 1866 260 2000 260 c 2
 2022 260 l 2
 2039 260 2047 178.0859375 2047 137 c 2
 2047 126 l 2
 2047 83.5537109375 2040 0 2022 0 c 2
EndSplineSet
EndChar

StartChar: uni06A1.fina
Encoding: 65543 -1 269
GlifName: uni06A_1.fina
Width: 2044
VWidth: 2551
GlyphClass: 2
Flags: HW
AnchorPoint: "Anchor-10" 475 1403 basechar 0
AnchorPoint: "Anchor-7" 600 -230 basechar 0
LayerCount: 2
Fore
SplineSet
2050 0 m 6
 1914 0 l 2
 1804 0 1669.12304688 21.638671875 1557.97753906 76.060546875 c 1
 1448.36230469 22.2216796875 1328.91113281 0 1201 0 c 2
 534 0 l 2
 226.498046875 0 62 168.883789062 62 482 c 2
 62 683 l 1
 62 723 l 1
 102 723 l 1
 277 723 l 1
 317 723 l 1
 317 683 l 1
 317 483 l 2
 317 326.571289062 383.106445312 260 538 260 c 2
 1229.671875 260 l 1
 1191.45800781 318.182617188 1168 386.591796875 1168 471 c 0
 1168 692.362304688 1341.48339844 866 1561 866 c 0
 1778.97460938 866 1953 695.661132812 1953 472 c 0
 1953 387.14453125 1928.30566406 315.796875 1892.00585938 260 c 1
 2050 260 l 6
 2067 260 2075 178.0859375 2075 137 c 6
 2075 126 l 6
 2075 83.5537109375 2068 0 2050 0 c 6
1705 470 m 0
 1705 547.462890625 1645.06640625 611 1560 611 c 0
 1473.7421875 611 1414 553.102539062 1414 470 c 0
 1414 393.659179688 1480.80957031 329 1560 329 c 0
 1638.85058594 329 1705 392.909179688 1705 470 c 0
EndSplineSet
EndChar

StartChar: uni06A1.init
Encoding: 65544 -1 270
GlifName: uni06A_1.init
Width: 898
VWidth: 2551
GlyphClass: 2
Flags: HW
AnchorPoint: "Anchor-10" 467 1430 basechar 0
AnchorPoint: "Anchor-7" 502 -167 basechar 0
LayerCount: 2
Fore
SplineSet
-5 260 m 2
 365 260 l 2
 568 260 589.266601562 307.418945312 594.185546875 359.272460938 c 5
 554.525390625 356.075195312 519.001953125 354 482 354 c 4
 234.626953125 354 86 441.750976562 86 666 c 4
 86 888.927734375 223.6796875 1060 466 1060 c 4
 707.413085938 1060 838 910.919921875 838 694 c 6
 838 375 l 6
 838 126.025390625 684 0 363 0 c 2
 -5 0 l 2
 -23 0 -30 83.5703125 -30 126 c 2
 -30 137 l 2
 -30 178.266601562 -22 260 -5 260 c 2
468 809 m 4
 372.181640625 809 331 766.233398438 331 677 c 4
 331 611.58984375 355.022460938 598 490 598 c 4
 525.54296875 598 560.755859375 600.27734375 595 603.838867188 c 5
 595 697 l 6
 595 767.634765625 560.944335938 809 468 809 c 4
EndSplineSet
EndChar

StartChar: uni06A1.medi
Encoding: 65545 -1 271
GlifName: uni06A_1.medi
Width: 1022
VWidth: 2551
GlyphClass: 2
Flags: HW
AnchorPoint: "Anchor-10" 535 1214 basechar 0
AnchorPoint: "Anchor-7" 505 -167 basechar 0
LayerCount: 2
Fore
SplineSet
1027 0 m 6
 891 0 l 2
 781 0 646.124023438 21.638671875 534.975585938 76.0615234375 c 1
 425.291015625 22.20703125 306 0 178 0 c 2
 -5 0 l 2
 -23 0 -30 83.5703125 -30 126 c 2
 -30 137 l 2
 -30 178.266601562 -22 260 -5 260 c 2
 206.671875 260 l 1
 168.458007812 318.182617188 145 386.591796875 145 471 c 0
 145 692.362304688 318.482421875 866 538 866 c 0
 755.973632812 866 930 695.66015625 930 472 c 0
 930 387.14453125 905.305664062 315.796875 869.004882812 260 c 1
 1027 260 l 6
 1044 260 1052 178.0859375 1052 137 c 6
 1052 126 l 6
 1052 83.5537109375 1045 0 1027 0 c 6
682 470 m 0
 682 547.461914062 622.06640625 611 537 611 c 0
 450.7421875 611 391 553.102539062 391 470 c 0
 391 393.659179688 457.809570312 329 537 329 c 0
 615.850585938 329 682 392.909179688 682 470 c 0
EndSplineSet
EndChar

StartChar: uni066F.fina
Encoding: 65546 -1 272
GlifName: uni066F_.fina
Width: 1466
VWidth: 2551
GlyphClass: 2
Flags: HW
AnchorPoint: "Anchor-10" 398 1090 basechar 0
AnchorPoint: "Anchor-7" 515 -660 basechar 0
LayerCount: 2
Fore
SplineSet
1471 0 m 6
 1371 0 l 1
 1371 -26 l 2
 1371 -354.176757812 1061.01367188 -449 744 -449 c 2
 693 -449 l 2
 282.630859375 -449 60 -248.262695312 60 141 c 2
 60 482 l 1
 60 522 l 1
 100 522 l 1
 274 522 l 1
 314 522 l 1
 314 482 l 1
 314 142 l 2
 314 -83.3662109375 430.090820312 -190 693 -190 c 2
 744 -190 l 2
 1001.00976562 -190 1120.98828125 -124.015625 1121.00097656 -26.0009765625 c 2
 1121.00097656 0 l 1
 999 0 l 2
 748.983398438 0 610.993164062 133.399414062 610.993164062 379.083007812 c 0
 610.993164062 615.541015625 740.705078125 805 998 805 c 0
 1234.35644531 805 1371 635.509765625 1371 388 c 2
 1371 260 l 1
 1471 260 l 6
 1488 260 1496 178.0859375 1496 137 c 6
 1496 126 l 6
 1496 83.5537109375 1489 0 1471 0 c 6
858 383 m 0
 858 296.868164062 893.884765625 260 998 260 c 2
 1122 260 l 1
 1122 389 l 2
 1122 511.123046875 1071.70703125 553 994 553 c 0
 903.130859375 553 858 500.129882812 858 383 c 0
EndSplineSet
EndChar

StartChar: arabic_gaf_bar
Encoding: 65550 -1 273
GlifName: arabic_gaf_bar
Width: 657
VWidth: 2389
GlyphClass: 2
Flags: HW
LayerCount: 2
Fore
SplineSet
605 1808 m 1
 17 1611 l 1
 17 1731 l 5
 605 1928 l 5
 605 1808 l 1
EndSplineSet
EndChar

StartChar: guillemotleft
Encoding: 171 171 283
GlifName: guillemotleft
Width: 957
VWidth: 2046
Flags: HW
LayerCount: 2
Fore
SplineSet
485.6171875 926.958984375 m 2
 402.126953125 782.747070312 320 642.147460938 320 497 c 0
 320 349.7109375 402.036132812 209.408203125 485.6171875 65.041015625 c 2
 520.377929688 5 l 1
 451 5 l 1
 299 5 l 1
 277.592773438 5 l 1
 265.717773438 22.8115234375 l 2
 163.313476562 176.419921875 80 330.366210938 80 497 c 0
 80 704.356445312 183.908203125 837.013671875 263.869140625 967.858398438 c 2
 275.56640625 987 l 1
 298 987 l 1
 451 987 l 1
 520.377929688 987 l 1
 485.6171875 926.958984375 l 2
861.6171875 926.958984375 m 2
 782.859375 790.921875 696 677.131835938 696 497 c 0
 696 349.7109375 778.036132812 209.408203125 861.6171875 65.041015625 c 2
 896.377929688 5 l 1
 827 5 l 1
 675 5 l 1
 653.592773438 5 l 1
 641.717773438 22.8115234375 l 2
 558.408203125 147.776367188 456 283.907226562 456 497 c 0
 456 704.356445312 559.908203125 837.013671875 639.869140625 967.858398438 c 2
 651.56640625 987 l 1
 674 987 l 1
 827 987 l 1
 896.377929688 987 l 1
 861.6171875 926.958984375 l 2
EndSplineSet
EndChar

StartChar: guillemotright
Encoding: 187 187 284
GlifName: guillemotright
Width: 957
VWidth: 2046
Flags: HW
LayerCount: 2
Fore
SplineSet
506 987 m 1
 659 987 l 1
 681.43359375 987 l 1
 693.130859375 967.858398438 l 2
 789.489257812 810.181640625 877 666.067382812 877 496 c 0
 877 330.235351562 793.729492188 176.482421875 691.282226562 22.8115234375 c 2
 679.407226562 5 l 1
 658 5 l 1
 506 5 l 1
 436.622070312 5 l 1
 471.3828125 65.041015625 l 2
 554.838867188 209.193359375 637 349.045898438 637 496 c 0
 637 642.569335938 555.145507812 782.27734375 471.3828125 926.958984375 c 2
 436.622070312 987 l 1
 506 987 l 1
130 987 m 1
 283 987 l 1
 305.43359375 987 l 1
 317.130859375 967.858398438 l 2
 413.489257812 810.181640625 501 666.067382812 501 496 c 0
 501 330.235351562 417.729492188 176.482421875 315.282226562 22.8115234375 c 2
 303.407226562 5 l 1
 282 5 l 1
 130 5 l 1
 60.6220703125 5 l 1
 95.3828125 65.041015625 l 2
 178.838867188 209.193359375 261 349.045898438 261 496 c 0
 261 642.569335938 179.145507812 782.27734375 95.3828125 926.958984375 c 2
 60.6220703125 987 l 1
 130 987 l 1
EndSplineSet
EndChar

StartChar: NameMe.302
Encoding: 65562 -1 293
GlifName: N_ameM_e.302
Width: 599
VWidth: 2551
Flags: HW
AnchorPoint: "Anchor-10" 313 1233 basechar 0
AnchorPoint: "Anchor-7" 231 -255 basechar 0
LayerCount: 2
Fore
SplineSet
-5 260 m 6
 28 260 l 2
 137 260 191 317 191 477 c 2
 191 1084 l 1
 191 1124 l 1
 231 1124 l 1
 397 1124 l 1
 437 1124 l 1
 437 1084 l 1
 437 476 l 2
 437 341 481 260 579 260 c 2
 604 260 l 2
 621 260 629 178.0859375 629 137 c 2
 629 126 l 2
 629 83.5537109375 622 0 604 0 c 2
 569 0 l 2
 459 0 384.217773438 44.05078125 312.08203125 120.182617188 c 1
 236.06640625 40.478515625 141 0 30 0 c 2
 -5 0 l 6
 -23 0 -30 83.5703125 -30 126 c 6
 -30 137 l 6
 -30 178.266601562 -22 260 -5 260 c 6
EndSplineSet
EndChar

StartChar: NameMe.303
Encoding: 65563 -1 294
GlifName: N_ameM_e.303
Width: 570
VWidth: 2551
Flags: HW
LayerCount: 2
Fore
SplineSet
-5 260 m 6
 67 260 l 2
 178 260 221 303 221 411 c 2
 221 1274 l 1
 221 1314 l 1
 261 1314 l 1
 428 1314 l 1
 468 1314 l 1
 468 1274 l 1
 468 407 l 2
 468 144 326 0 66 0 c 2
 -5 0 l 6
 -23 0 -30 83.5703125 -30 126 c 6
 -30 137 l 6
 -30 178.266601562 -22 260 -5 260 c 6
EndSplineSet
EndChar

StartChar: NameMe.65564
Encoding: 65564 -1 297
GlifName: N_ameM_e.65564
Width: 516
VWidth: 2551
Flags: HW
AnchorPoint: "Anchor-10" 247 1271 basechar 0
AnchorPoint: "Anchor-7" 273 -207 basechar 0
LayerCount: 2
Fore
SplineSet
522 0 m 6
 477 0 l 2
 236 0 111 151 111 415 c 2
 111 1093 l 1
 111 1133 l 1
 151 1133 l 1
 320 1133 l 1
 360 1133 l 1
 360 1093 l 1
 360 414 l 2
 360 298 398 260 480 260 c 2
 522 260 l 6
 539 260 547 178.0859375 547 137 c 6
 547 126 l 6
 547 83.5537109375 540 0 522 0 c 6
EndSplineSet
EndChar

StartChar: NameMe.65565
Encoding: 65565 -1 298
GlifName: N_ameM_e.65565
Width: 867
VWidth: 1530
Flags: HW
LayerCount: 2
Fore
SplineSet
289.314554973 -122.978657783 m 2
 309.812774859 -132.782154251 345.542960147 -138 395 -138 c 2
 447 -138 l 2
 592.787654076 -138 652 -106.927695387 652 -60 c 2
 652 -54 l 2
 652 -34.8213919969 639.848687244 -23 604 -23 c 2
 512 -23 l 2
 439.614547988 -23 400 15.1280787474 400 86 c 2
 400 124 l 2
 400 216.11735461 448.46767155 280.301192346 539.672023214 312.429998046 c 0
 571.977040742 323.893068782 611.083634426 330 655 330 c 2
 770 330 l 1
 779.914164678 330 l 1
 779.999628439 320.086203693 l 1
 780.999628439 204.086203693 l 1
 781.086578471 194 l 1
 771 194 l 1
 766 194 l 1
 631 194 l 2
 559.998167762 194 529.848880998 170.194901132 529 126.901970206 c 2
 529 112 l 1
 529 107 l 1
 534 107 l 1
 605 107 l 2
 718.855261632 107 781 59.4346065409 781 -34 c 2
 781 -50 l 2
 781 -198.063040905 662.306628452 -271 442 -271 c 2
 394 -271 l 2
 335.314168688 -271 289.374448863 -264.999075155 254.83772234 -253.486832981 c 2
 246.126528465 -250.583101689 l 1
 248.278495636 -241.656423055 l 1
 275.278495636 -129.656423055 l 1
 278.172892384 -117.650036545 l 1
 289.314554973 -122.978657783 l 2
EndSplineSet
EndChar

StartChar: uni060D
Encoding: 1549 1549 299
Width: 828
VWidth: 4036
Flags: HW
LayerCount: 2
Fore
SplineSet
556.780273438 1458.1484375 m 5
 776.4453125 1392.09472656 l 1
 223.374023438 -220.399414062 l 5
 3.708984375 -154.345703125 l 5
 556.780273438 1458.1484375 l 5
EndSplineSet
EndChar

StartChar: NameMe.65541
Encoding: 65541 -1 300
Width: 677
VWidth: 2551
Flags: HW
AnchorPoint: "Anchor-10" 400 1258 basechar 0
AnchorPoint: "Anchor-7" 407 -104 basechar 0
LayerCount: 2
Fore
SplineSet
-5 260 m 6
 198 260 l 2
 319 260 360 286.045898438 360 413 c 2
 360 707 l 1
 360 747 l 1
 400 747 l 1
 574 747 l 1
 614 747 l 1
 614 707 l 1
 614 412 l 2
 614 144.83203125 467 0 197 0 c 2
 -5 0 l 6
 -23 0 -30 83.5703125 -30 126 c 6
 -30 137 l 6
 -30 178.266601562 -22 260 -5 260 c 6
EndSplineSet
EndChar

StartChar: NameMe.65542
Encoding: 65542 -1 301
Width: 807
VWidth: 2551
Flags: HW
AnchorPoint: "Anchor-10" 360 1164 basechar 0
AnchorPoint: "Anchor-7" 339 -109 basechar 0
LayerCount: 2
Fore
SplineSet
811 0 m 6
 791 0 l 2
 659 0 566.681640625 37.0224609375 500.66796875 112.791992188 c 1
 423.25 35.73046875 317 0 166 0 c 2
 -5 0 l 2
 -23 0 -30 83.5703125 -30 126 c 2
 -30 137 l 2
 -30 178.266601562 -22 260 -5 260 c 2
 171 260 l 2
 328 260 372 308.784179688 372 415 c 2
 372 673 l 1
 372 713 l 1
 412 713 l 1
 583 713 l 1
 623 713 l 1
 623 673 l 1
 623 415 l 2
 623 303.000976562 656 260 790 260 c 2
 811 260 l 6
 828 260 836 178.0859375 836 137 c 6
 836 126 l 6
 836 83.5537109375 829 0 811 0 c 6
EndSplineSet
EndChar

StartChar: uniFBFD.compact
Encoding: 65575 -1 321
Width: 1381
VWidth: 2551
Flags: HW
AnchorPoint: "Anchor-7" 721.902 -610.086 basechar 0
AnchorPoint: "Anchor-10" 681.6 693.22 basechar 0
LayerCount: 2
Fore
SplineSet
1386 0 m 6
 1372 0 l 1
 1372 -39 l 2
 1372 -307.721679688 1155.65234375 -451 783 -451 c 2
 687 -451 l 2
 277.130859375 -451 60 -247.721679688 60 139 c 2
 60 480 l 1
 60 520.229492188 l 1
 100.228515625 519.999023438 l 1
 275.228515625 518.999023438 l 1
 315 518.772460938 l 1
 315 479 l 1
 315 140 l 2
 315 -84.9658203125 427.607421875 -191 687 -191 c 2
 783 -191 l 2
 974.009765625 -191 1119 -156.893554688 1119 -32 c 2
 1119 0 l 1
 906 0 l 2
 843.634765625 0 815.584970103 34.8874405683 793.377929688 117.590820312 c 0
 764 227 768 260 837 260 c 2
 1386 260 l 6
 1403 260 1411 178.0859375 1411 137 c 6
 1411 126 l 6
 1411 83.5537109375 1404 0 1386 0 c 6
EndSplineSet
EndChar

StartChar: uniFECC.compact
Encoding: 65579 -1 324
Width: 1113
VWidth: 2950
Flags: HW
AnchorPoint: "Anchor-7" 585 -197 basechar 0
AnchorPoint: "Anchor-10" 608 1141 basechar 0
LayerCount: 2
Fore
SplineSet
1118 0 m 6
 1009 0 l 2
 909 0 768.165039062 14.78125 616.71875 95.4697265625 c 1
 459.29296875 13.482421875 322 0 146 0 c 2
 -5 0 l 2
 -23 0 -30 83.5703125 -30 126 c 2
 -30 137 l 2
 -30 178.266601562 -22 260 -5 260 c 2
 145 260 l 2
 233 260 296.344726562 261.315429688 358.225585938 266.465820312 c 1
 266.299804688 329.2890625 113.9921875 433.662109375 113.9921875 543.420898438 c 0
 113.9921875 766.094726562 359.475585938 832 619 832 c 0
 878.614257812 832 1123.0078125 766.005859375 1123.0078125 543.420898438 c 0
 1123.0078125 432.765625 966.989257812 326.236328125 876.922851562 264.71484375 c 1
 919.745117188 261.147460938 964 260 1015 260 c 2
 1118 260 l 6
 1135 260 1143 178.0859375 1143 137 c 6
 1143 126 l 6
 1143 83.5537109375 1136 0 1118 0 c 6
618 373.180664062 m 1
 671.063476562 404.099609375 815.29296875 502.25390625 856.983398438 543.416015625 c 1
 827.118164062 562.806640625 733.825195312 582 617 582 c 0
 501.8984375 582 408.052734375 562.186523438 379.063476562 543.370117188 c 1
 422.075195312 500.90234375 566.885742188 402.963867188 618 373.180664062 c 1
EndSplineSet
EndChar

